ISO-10303-21;
HEADER;
/* Generated by software containing ST-Developer
 * from STEP Tools, Inc. (www.steptools.com) 
 */

FILE_DESCRIPTION(
/* description */ (''),
/* implementation_level */ '2;1');

FILE_NAME(
/* name */ 'Gearbox_housing_pillars_v2.step',
/* time_stamp */ '2023-12-05T17:18:33+01:00',
/* author */ (''),
/* organization */ (''),
/* preprocessor_version */ 'ST-DEVELOPER v20',
/* originating_system */ 'Autodesk Translation Framework v12.14.0.127',

/* authorisation */ '');

FILE_SCHEMA (('AUTOMOTIVE_DESIGN { 1 0 10303 214 3 1 1 }'));
ENDSEC;

DATA;
#10=MECHANICAL_DESIGN_GEOMETRIC_PRESENTATION_REPRESENTATION('',(#21,#22,
#23,#24),#432);
#11=ITEM_DEFINED_TRANSFORMATION($,$,#247,#280);
#12=ITEM_DEFINED_TRANSFORMATION($,$,#246,#281);
#13=(
REPRESENTATION_RELATIONSHIP($,$,#447,#446)
REPRESENTATION_RELATIONSHIP_WITH_TRANSFORMATION(#11)
SHAPE_REPRESENTATION_RELATIONSHIP()
);
#14=(
REPRESENTATION_RELATIONSHIP($,$,#446,#445)
REPRESENTATION_RELATIONSHIP_WITH_TRANSFORMATION(#12)
SHAPE_REPRESENTATION_RELATIONSHIP()
);
#15=CONTEXT_DEPENDENT_SHAPE_REPRESENTATION(#13,#443);
#16=CONTEXT_DEPENDENT_SHAPE_REPRESENTATION(#14,#444);
#17=NEXT_ASSEMBLY_USAGE_OCCURRENCE('Component10:1','Component10:1',
'Component10:1',#450,#451,'Component10:1');
#18=NEXT_ASSEMBLY_USAGE_OCCURRENCE('Housing:1','Housing:1','Housing:1',
#449,#450,'Housing:1');
#19=SHAPE_REPRESENTATION_RELATIONSHIP('SRR','None',#447,#20);
#20=ADVANCED_BREP_SHAPE_REPRESENTATION('',(#25,#26,#27,#28),#431);
#21=STYLED_ITEM('',(#464),#25);
#22=STYLED_ITEM('',(#464),#26);
#23=STYLED_ITEM('',(#464),#27);
#24=STYLED_ITEM('',(#464),#28);
#25=MANIFOLD_SOLID_BREP('Body1',#229);
#26=MANIFOLD_SOLID_BREP('Body2',#230);
#27=MANIFOLD_SOLID_BREP('Body3',#231);
#28=MANIFOLD_SOLID_BREP('Body4',#232);
#29=FACE_BOUND('',#64,.T.);
#30=FACE_BOUND('',#66,.T.);
#31=FACE_BOUND('',#70,.T.);
#32=FACE_BOUND('',#72,.T.);
#33=FACE_BOUND('',#76,.T.);
#34=FACE_BOUND('',#78,.T.);
#35=FACE_BOUND('',#82,.T.);
#36=FACE_BOUND('',#84,.T.);
#37=PLANE('',#254);
#38=PLANE('',#255);
#39=PLANE('',#262);
#40=PLANE('',#263);
#41=PLANE('',#270);
#42=PLANE('',#271);
#43=PLANE('',#278);
#44=PLANE('',#279);
#45=FACE_OUTER_BOUND('',#61,.T.);
#46=FACE_OUTER_BOUND('',#62,.T.);
#47=FACE_OUTER_BOUND('',#63,.T.);
#48=FACE_OUTER_BOUND('',#65,.T.);
#49=FACE_OUTER_BOUND('',#67,.T.);
#50=FACE_OUTER_BOUND('',#68,.T.);
#51=FACE_OUTER_BOUND('',#69,.T.);
#52=FACE_OUTER_BOUND('',#71,.T.);
#53=FACE_OUTER_BOUND('',#73,.T.);
#54=FACE_OUTER_BOUND('',#74,.T.);
#55=FACE_OUTER_BOUND('',#75,.T.);
#56=FACE_OUTER_BOUND('',#77,.T.);
#57=FACE_OUTER_BOUND('',#79,.T.);
#58=FACE_OUTER_BOUND('',#80,.T.);
#59=FACE_OUTER_BOUND('',#81,.T.);
#60=FACE_OUTER_BOUND('',#83,.T.);
#61=EDGE_LOOP('',(#157,#158,#159,#160));
#62=EDGE_LOOP('',(#161,#162,#163,#164));
#63=EDGE_LOOP('',(#165));
#64=EDGE_LOOP('',(#166));
#65=EDGE_LOOP('',(#167));
#66=EDGE_LOOP('',(#168));
#67=EDGE_LOOP('',(#169,#170,#171,#172));
#68=EDGE_LOOP('',(#173,#174,#175,#176));
#69=EDGE_LOOP('',(#177));
#70=EDGE_LOOP('',(#178));
#71=EDGE_LOOP('',(#179));
#72=EDGE_LOOP('',(#180));
#73=EDGE_LOOP('',(#181,#182,#183,#184));
#74=EDGE_LOOP('',(#185,#186,#187,#188));
#75=EDGE_LOOP('',(#189));
#76=EDGE_LOOP('',(#190));
#77=EDGE_LOOP('',(#191));
#78=EDGE_LOOP('',(#192));
#79=EDGE_LOOP('',(#193,#194,#195,#196));
#80=EDGE_LOOP('',(#197,#198,#199,#200));
#81=EDGE_LOOP('',(#201));
#82=EDGE_LOOP('',(#202));
#83=EDGE_LOOP('',(#203));
#84=EDGE_LOOP('',(#204));
#85=LINE('',#371,#93);
#86=LINE('',#377,#94);
#87=LINE('',#385,#95);
#88=LINE('',#391,#96);
#89=LINE('',#399,#97);
#90=LINE('',#405,#98);
#91=LINE('',#413,#99);
#92=LINE('',#419,#100);
#93=VECTOR('',#292,1.65);
#94=VECTOR('',#299,3.65);
#95=VECTOR('',#310,1.65);
#96=VECTOR('',#317,3.65);
#97=VECTOR('',#328,1.65);
#98=VECTOR('',#335,3.65);
#99=VECTOR('',#346,1.65);
#100=VECTOR('',#353,3.15);
#101=CIRCLE('',#249,1.65);
#102=CIRCLE('',#250,1.65);
#103=CIRCLE('',#252,3.65);
#104=CIRCLE('',#253,3.65);
#105=CIRCLE('',#257,1.65);
#106=CIRCLE('',#258,1.65);
#107=CIRCLE('',#260,3.65);
#108=CIRCLE('',#261,3.65);
#109=CIRCLE('',#265,1.65);
#110=CIRCLE('',#266,1.65);
#111=CIRCLE('',#268,3.65);
#112=CIRCLE('',#269,3.65);
#113=CIRCLE('',#273,1.65);
#114=CIRCLE('',#274,1.65);
#115=CIRCLE('',#276,3.15);
#116=CIRCLE('',#277,3.15);
#117=VERTEX_POINT('',#368);
#118=VERTEX_POINT('',#370);
#119=VERTEX_POINT('',#374);
#120=VERTEX_POINT('',#376);
#121=VERTEX_POINT('',#382);
#122=VERTEX_POINT('',#384);
#123=VERTEX_POINT('',#388);
#124=VERTEX_POINT('',#390);
#125=VERTEX_POINT('',#396);
#126=VERTEX_POINT('',#398);
#127=VERTEX_POINT('',#402);
#128=VERTEX_POINT('',#404);
#129=VERTEX_POINT('',#410);
#130=VERTEX_POINT('',#412);
#131=VERTEX_POINT('',#416);
#132=VERTEX_POINT('',#418);
#133=EDGE_CURVE('',#117,#117,#101,.T.);
#134=EDGE_CURVE('',#117,#118,#85,.T.);
#135=EDGE_CURVE('',#118,#118,#102,.T.);
#136=EDGE_CURVE('',#119,#119,#103,.T.);
#137=EDGE_CURVE('',#119,#120,#86,.T.);
#138=EDGE_CURVE('',#120,#120,#104,.T.);
#139=EDGE_CURVE('',#121,#121,#105,.T.);
#140=EDGE_CURVE('',#121,#122,#87,.T.);
#141=EDGE_CURVE('',#122,#122,#106,.T.);
#142=EDGE_CURVE('',#123,#123,#107,.T.);
#143=EDGE_CURVE('',#123,#124,#88,.T.);
#144=EDGE_CURVE('',#124,#124,#108,.T.);
#145=EDGE_CURVE('',#125,#125,#109,.T.);
#146=EDGE_CURVE('',#125,#126,#89,.T.);
#147=EDGE_CURVE('',#126,#126,#110,.T.);
#148=EDGE_CURVE('',#127,#127,#111,.T.);
#149=EDGE_CURVE('',#127,#128,#90,.T.);
#150=EDGE_CURVE('',#128,#128,#112,.T.);
#151=EDGE_CURVE('',#129,#129,#113,.T.);
#152=EDGE_CURVE('',#129,#130,#91,.T.);
#153=EDGE_CURVE('',#130,#130,#114,.T.);
#154=EDGE_CURVE('',#131,#131,#115,.T.);
#155=EDGE_CURVE('',#131,#132,#92,.T.);
#156=EDGE_CURVE('',#132,#132,#116,.T.);
#157=ORIENTED_EDGE('',*,*,#133,.F.);
#158=ORIENTED_EDGE('',*,*,#134,.T.);
#159=ORIENTED_EDGE('',*,*,#135,.F.);
#160=ORIENTED_EDGE('',*,*,#134,.F.);
#161=ORIENTED_EDGE('',*,*,#136,.F.);
#162=ORIENTED_EDGE('',*,*,#137,.T.);
#163=ORIENTED_EDGE('',*,*,#138,.F.);
#164=ORIENTED_EDGE('',*,*,#137,.F.);
#165=ORIENTED_EDGE('',*,*,#138,.T.);
#166=ORIENTED_EDGE('',*,*,#135,.T.);
#167=ORIENTED_EDGE('',*,*,#136,.T.);
#168=ORIENTED_EDGE('',*,*,#133,.T.);
#169=ORIENTED_EDGE('',*,*,#139,.F.);
#170=ORIENTED_EDGE('',*,*,#140,.T.);
#171=ORIENTED_EDGE('',*,*,#141,.F.);
#172=ORIENTED_EDGE('',*,*,#140,.F.);
#173=ORIENTED_EDGE('',*,*,#142,.F.);
#174=ORIENTED_EDGE('',*,*,#143,.T.);
#175=ORIENTED_EDGE('',*,*,#144,.F.);
#176=ORIENTED_EDGE('',*,*,#143,.F.);
#177=ORIENTED_EDGE('',*,*,#144,.T.);
#178=ORIENTED_EDGE('',*,*,#141,.T.);
#179=ORIENTED_EDGE('',*,*,#142,.T.);
#180=ORIENTED_EDGE('',*,*,#139,.T.);
#181=ORIENTED_EDGE('',*,*,#145,.F.);
#182=ORIENTED_EDGE('',*,*,#146,.T.);
#183=ORIENTED_EDGE('',*,*,#147,.F.);
#184=ORIENTED_EDGE('',*,*,#146,.F.);
#185=ORIENTED_EDGE('',*,*,#148,.F.);
#186=ORIENTED_EDGE('',*,*,#149,.T.);
#187=ORIENTED_EDGE('',*,*,#150,.F.);
#188=ORIENTED_EDGE('',*,*,#149,.F.);
#189=ORIENTED_EDGE('',*,*,#150,.T.);
#190=ORIENTED_EDGE('',*,*,#147,.T.);
#191=ORIENTED_EDGE('',*,*,#148,.T.);
#192=ORIENTED_EDGE('',*,*,#145,.T.);
#193=ORIENTED_EDGE('',*,*,#151,.F.);
#194=ORIENTED_EDGE('',*,*,#152,.T.);
#195=ORIENTED_EDGE('',*,*,#153,.F.);
#196=ORIENTED_EDGE('',*,*,#152,.F.);
#197=ORIENTED_EDGE('',*,*,#154,.F.);
#198=ORIENTED_EDGE('',*,*,#155,.T.);
#199=ORIENTED_EDGE('',*,*,#156,.F.);
#200=ORIENTED_EDGE('',*,*,#155,.F.);
#201=ORIENTED_EDGE('',*,*,#156,.T.);
#202=ORIENTED_EDGE('',*,*,#153,.T.);
#203=ORIENTED_EDGE('',*,*,#154,.T.);
#204=ORIENTED_EDGE('',*,*,#151,.T.);
#205=CYLINDRICAL_SURFACE('',#248,1.65);
#206=CYLINDRICAL_SURFACE('',#251,3.65);
#207=CYLINDRICAL_SURFACE('',#256,1.65);
#208=CYLINDRICAL_SURFACE('',#259,3.65);
#209=CYLINDRICAL_SURFACE('',#264,1.65);
#210=CYLINDRICAL_SURFACE('',#267,3.65);
#211=CYLINDRICAL_SURFACE('',#272,1.65);
#212=CYLINDRICAL_SURFACE('',#275,3.15);
#213=ADVANCED_FACE('',(#45),#205,.F.);
#214=ADVANCED_FACE('',(#46),#206,.T.);
#215=ADVANCED_FACE('',(#47,#29),#37,.T.);
#216=ADVANCED_FACE('',(#48,#30),#38,.F.);
#217=ADVANCED_FACE('',(#49),#207,.F.);
#218=ADVANCED_FACE('',(#50),#208,.T.);
#219=ADVANCED_FACE('',(#51,#31),#39,.T.);
#220=ADVANCED_FACE('',(#52,#32),#40,.F.);
#221=ADVANCED_FACE('',(#53),#209,.F.);
#222=ADVANCED_FACE('',(#54),#210,.T.);
#223=ADVANCED_FACE('',(#55,#33),#41,.T.);
#224=ADVANCED_FACE('',(#56,#34),#42,.F.);
#225=ADVANCED_FACE('',(#57),#211,.F.);
#226=ADVANCED_FACE('',(#58),#212,.T.);
#227=ADVANCED_FACE('',(#59,#35),#43,.T.);
#228=ADVANCED_FACE('',(#60,#36),#44,.F.);
#229=CLOSED_SHELL('',(#213,#214,#215,#216));
#230=CLOSED_SHELL('',(#217,#218,#219,#220));
#231=CLOSED_SHELL('',(#221,#222,#223,#224));
#232=CLOSED_SHELL('',(#225,#226,#227,#228));
#233=DERIVED_UNIT_ELEMENT(#235,1.);
#234=DERIVED_UNIT_ELEMENT(#434,-3.);
#235=(
MASS_UNIT()
NAMED_UNIT(*)
SI_UNIT(.KILO.,.GRAM.)
);
#236=DERIVED_UNIT((#233,#234));
#237=MEASURE_REPRESENTATION_ITEM('density measure',
POSITIVE_RATIO_MEASURE(7850.),#236);
#238=PROPERTY_DEFINITION_REPRESENTATION(#243,#240);
#239=PROPERTY_DEFINITION_REPRESENTATION(#244,#241);
#240=REPRESENTATION('material name',(#242),#431);
#241=REPRESENTATION('density',(#237),#431);
#242=DESCRIPTIVE_REPRESENTATION_ITEM('Steel','Steel');
#243=PROPERTY_DEFINITION('material property','material name',#451);
#244=PROPERTY_DEFINITION('material property','density of part',#451);
#245=AXIS2_PLACEMENT_3D('',#364,#282,#283);
#246=AXIS2_PLACEMENT_3D('',#365,#284,#285);
#247=AXIS2_PLACEMENT_3D('',#366,#286,#287);
#248=AXIS2_PLACEMENT_3D('',#367,#288,#289);
#249=AXIS2_PLACEMENT_3D('',#369,#290,#291);
#250=AXIS2_PLACEMENT_3D('',#372,#293,#294);
#251=AXIS2_PLACEMENT_3D('',#373,#295,#296);
#252=AXIS2_PLACEMENT_3D('',#375,#297,#298);
#253=AXIS2_PLACEMENT_3D('',#378,#300,#301);
#254=AXIS2_PLACEMENT_3D('',#379,#302,#303);
#255=AXIS2_PLACEMENT_3D('',#380,#304,#305);
#256=AXIS2_PLACEMENT_3D('',#381,#306,#307);
#257=AXIS2_PLACEMENT_3D('',#383,#308,#309);
#258=AXIS2_PLACEMENT_3D('',#386,#311,#312);
#259=AXIS2_PLACEMENT_3D('',#387,#313,#314);
#260=AXIS2_PLACEMENT_3D('',#389,#315,#316);
#261=AXIS2_PLACEMENT_3D('',#392,#318,#319);
#262=AXIS2_PLACEMENT_3D('',#393,#320,#321);
#263=AXIS2_PLACEMENT_3D('',#394,#322,#323);
#264=AXIS2_PLACEMENT_3D('',#395,#324,#325);
#265=AXIS2_PLACEMENT_3D('',#397,#326,#327);
#266=AXIS2_PLACEMENT_3D('',#400,#329,#330);
#267=AXIS2_PLACEMENT_3D('',#401,#331,#332);
#268=AXIS2_PLACEMENT_3D('',#403,#333,#334);
#269=AXIS2_PLACEMENT_3D('',#406,#336,#337);
#270=AXIS2_PLACEMENT_3D('',#407,#338,#339);
#271=AXIS2_PLACEMENT_3D('',#408,#340,#341);
#272=AXIS2_PLACEMENT_3D('',#409,#342,#343);
#273=AXIS2_PLACEMENT_3D('',#411,#344,#345);
#274=AXIS2_PLACEMENT_3D('',#414,#347,#348);
#275=AXIS2_PLACEMENT_3D('',#415,#349,#350);
#276=AXIS2_PLACEMENT_3D('',#417,#351,#352);
#277=AXIS2_PLACEMENT_3D('',#420,#354,#355);
#278=AXIS2_PLACEMENT_3D('',#421,#356,#357);
#279=AXIS2_PLACEMENT_3D('',#422,#358,#359);
#280=AXIS2_PLACEMENT_3D('',#423,#360,#361);
#281=AXIS2_PLACEMENT_3D('',#424,#362,#363);
#282=DIRECTION('axis',(0.,0.,1.));
#283=DIRECTION('refdir',(1.,0.,0.));
#284=DIRECTION('axis',(0.,0.,1.));
#285=DIRECTION('refdir',(1.,0.,0.));
#286=DIRECTION('axis',(0.,0.,1.));
#287=DIRECTION('refdir',(1.,0.,0.));
#288=DIRECTION('center_axis',(0.,0.,-1.));
#289=DIRECTION('ref_axis',(-1.,0.,0.));
#290=DIRECTION('center_axis',(0.,0.,1.));
#291=DIRECTION('ref_axis',(-1.,0.,0.));
#292=DIRECTION('',(0.,0.,1.));
#293=DIRECTION('center_axis',(0.,0.,-1.));
#294=DIRECTION('ref_axis',(-1.,0.,0.));
#295=DIRECTION('center_axis',(0.,0.,-1.));
#296=DIRECTION('ref_axis',(-1.,0.,0.));
#297=DIRECTION('center_axis',(0.,0.,-1.));
#298=DIRECTION('ref_axis',(-1.,0.,0.));
#299=DIRECTION('',(0.,0.,1.));
#300=DIRECTION('center_axis',(0.,0.,1.));
#301=DIRECTION('ref_axis',(-1.,0.,0.));
#302=DIRECTION('center_axis',(0.,0.,1.));
#303=DIRECTION('ref_axis',(-1.,0.,0.));
#304=DIRECTION('center_axis',(0.,0.,1.));
#305=DIRECTION('ref_axis',(1.,0.,0.));
#306=DIRECTION('center_axis',(0.,0.,-1.));
#307=DIRECTION('ref_axis',(-1.,0.,0.));
#308=DIRECTION('center_axis',(0.,0.,1.));
#309=DIRECTION('ref_axis',(-1.,0.,0.));
#310=DIRECTION('',(0.,0.,1.));
#311=DIRECTION('center_axis',(0.,0.,-1.));
#312=DIRECTION('ref_axis',(-1.,0.,0.));
#313=DIRECTION('center_axis',(0.,0.,-1.));
#314=DIRECTION('ref_axis',(-1.,0.,0.));
#315=DIRECTION('center_axis',(0.,0.,-1.));
#316=DIRECTION('ref_axis',(-1.,0.,0.));
#317=DIRECTION('',(0.,0.,1.));
#318=DIRECTION('center_axis',(0.,0.,1.));
#319=DIRECTION('ref_axis',(-1.,0.,0.));
#320=DIRECTION('center_axis',(0.,0.,1.));
#321=DIRECTION('ref_axis',(-1.,0.,0.));
#322=DIRECTION('center_axis',(0.,0.,1.));
#323=DIRECTION('ref_axis',(1.,0.,0.));
#324=DIRECTION('center_axis',(0.,0.,-1.));
#325=DIRECTION('ref_axis',(-1.,0.,0.));
#326=DIRECTION('center_axis',(0.,0.,1.));
#327=DIRECTION('ref_axis',(-1.,0.,0.));
#328=DIRECTION('',(0.,0.,1.));
#329=DIRECTION('center_axis',(0.,0.,-1.));
#330=DIRECTION('ref_axis',(-1.,0.,0.));
#331=DIRECTION('center_axis',(0.,0.,-1.));
#332=DIRECTION('ref_axis',(-1.,0.,0.));
#333=DIRECTION('center_axis',(0.,0.,-1.));
#334=DIRECTION('ref_axis',(-1.,0.,0.));
#335=DIRECTION('',(0.,0.,1.));
#336=DIRECTION('center_axis',(0.,0.,1.));
#337=DIRECTION('ref_axis',(-1.,0.,0.));
#338=DIRECTION('center_axis',(0.,0.,1.));
#339=DIRECTION('ref_axis',(-1.,0.,0.));
#340=DIRECTION('center_axis',(0.,0.,1.));
#341=DIRECTION('ref_axis',(1.,0.,0.));
#342=DIRECTION('center_axis',(0.,0.,-1.));
#343=DIRECTION('ref_axis',(-1.,0.,0.));
#344=DIRECTION('center_axis',(0.,0.,1.));
#345=DIRECTION('ref_axis',(-1.,0.,0.));
#346=DIRECTION('',(0.,0.,1.));
#347=DIRECTION('center_axis',(0.,0.,-1.));
#348=DIRECTION('ref_axis',(-1.,0.,0.));
#349=DIRECTION('center_axis',(0.,0.,-1.));
#350=DIRECTION('ref_axis',(-1.,0.,0.));
#351=DIRECTION('center_axis',(0.,0.,-1.));
#352=DIRECTION('ref_axis',(-1.,0.,0.));
#353=DIRECTION('',(0.,0.,1.));
#354=DIRECTION('center_axis',(0.,0.,1.));
#355=DIRECTION('ref_axis',(-1.,0.,0.));
#356=DIRECTION('center_axis',(0.,0.,1.));
#357=DIRECTION('ref_axis',(-1.,0.,0.));
#358=DIRECTION('center_axis',(0.,0.,1.));
#359=DIRECTION('ref_axis',(1.,0.,0.));
#360=DIRECTION('',(7.52316384526264E-37,0.,1.));
#361=DIRECTION('',(1.,-9.54769068236127E-40,0.));
#362=DIRECTION('',(-5.46184951915631E-21,1.11022371260878E-16,1.));
#363=DIRECTION('',(1.,6.93889390390723E-18,1.38777878078145E-17));
#364=CARTESIAN_POINT('',(0.,0.,0.));
#365=CARTESIAN_POINT('',(0.,0.,0.));
#366=CARTESIAN_POINT('',(0.,0.,0.));
#367=CARTESIAN_POINT('Origin',(18.0000002086163,22.0000003874302,21.1));
#368=CARTESIAN_POINT('',(19.6500002086163,22.0000003874302,0.));
#369=CARTESIAN_POINT('Origin',(18.0000002086163,22.0000003874302,0.));
#370=CARTESIAN_POINT('',(19.6500002086163,22.0000003874302,21.1));
#371=CARTESIAN_POINT('',(19.6500002086163,22.0000003874302,21.1));
#372=CARTESIAN_POINT('Origin',(18.0000002086163,22.0000003874302,21.1));
#373=CARTESIAN_POINT('Origin',(18.0000002086163,22.0000003874302,21.1));
#374=CARTESIAN_POINT('',(21.6500002086163,22.0000003874302,0.));
#375=CARTESIAN_POINT('Origin',(18.0000002086163,22.0000003874302,0.));
#376=CARTESIAN_POINT('',(21.6500002086163,22.0000003874302,21.1));
#377=CARTESIAN_POINT('',(21.6500002086163,22.0000003874302,21.1));
#378=CARTESIAN_POINT('Origin',(18.0000002086163,22.0000003874302,21.1));
#379=CARTESIAN_POINT('Origin',(18.0000002086163,22.0000003874302,21.1));
#380=CARTESIAN_POINT('Origin',(46.500000692904,8.50000012665987,0.));
#381=CARTESIAN_POINT('Origin',(75.0000011771917,22.0000003874302,21.1));
#382=CARTESIAN_POINT('',(76.6500011771917,22.0000003874302,0.));
#383=CARTESIAN_POINT('Origin',(75.0000011771917,22.0000003874302,0.));
#384=CARTESIAN_POINT('',(76.6500011771917,22.0000003874302,21.1));
#385=CARTESIAN_POINT('',(76.6500011771917,22.0000003874302,21.1));
#386=CARTESIAN_POINT('Origin',(75.0000011771917,22.0000003874302,21.1));
#387=CARTESIAN_POINT('Origin',(75.0000011771917,22.0000003874302,21.1));
#388=CARTESIAN_POINT('',(78.6500011771917,22.0000003874302,0.));
#389=CARTESIAN_POINT('Origin',(75.0000011771917,22.0000003874302,0.));
#390=CARTESIAN_POINT('',(78.6500011771917,22.0000003874302,21.1));
#391=CARTESIAN_POINT('',(78.6500011771917,22.0000003874302,21.1));
#392=CARTESIAN_POINT('Origin',(75.0000011771917,22.0000003874302,21.1));
#393=CARTESIAN_POINT('Origin',(75.0000011771917,22.0000003874302,21.1));
#394=CARTESIAN_POINT('Origin',(46.500000692904,8.50000012665987,0.));
#395=CARTESIAN_POINT('Origin',(18.0000002086163,-5.00000013411045,21.1));
#396=CARTESIAN_POINT('',(19.6500002086163,-5.00000013411045,0.));
#397=CARTESIAN_POINT('Origin',(18.0000002086163,-5.00000013411045,0.));
#398=CARTESIAN_POINT('',(19.6500002086163,-5.00000013411045,21.1));
#399=CARTESIAN_POINT('',(19.6500002086163,-5.00000013411045,21.1));
#400=CARTESIAN_POINT('Origin',(18.0000002086163,-5.00000013411045,21.1));
#401=CARTESIAN_POINT('Origin',(18.0000002086163,-5.00000013411045,21.1));
#402=CARTESIAN_POINT('',(21.6500002086163,-5.00000013411045,0.));
#403=CARTESIAN_POINT('Origin',(18.0000002086163,-5.00000013411045,0.));
#404=CARTESIAN_POINT('',(21.6500002086163,-5.00000013411045,21.1));
#405=CARTESIAN_POINT('',(21.6500002086163,-5.00000013411045,21.1));
#406=CARTESIAN_POINT('Origin',(18.0000002086163,-5.00000013411045,21.1));
#407=CARTESIAN_POINT('Origin',(18.0000002086163,-5.00000013411045,21.1));
#408=CARTESIAN_POINT('Origin',(46.500000692904,8.50000012665987,0.));
#409=CARTESIAN_POINT('Origin',(75.0000011771917,-5.00000013411045,21.1));
#410=CARTESIAN_POINT('',(76.6500011771917,-5.00000013411045,0.));
#411=CARTESIAN_POINT('Origin',(75.0000011771917,-5.00000013411045,0.));
#412=CARTESIAN_POINT('',(76.6500011771917,-5.00000013411045,21.1));
#413=CARTESIAN_POINT('',(76.6500011771917,-5.00000013411045,21.1));
#414=CARTESIAN_POINT('Origin',(75.0000011771917,-5.00000013411045,21.1));
#415=CARTESIAN_POINT('Origin',(75.0000011771917,-5.00000013411045,21.1));
#416=CARTESIAN_POINT('',(78.1500011771917,-5.00000013411045,0.));
#417=CARTESIAN_POINT('Origin',(75.0000011771917,-5.00000013411045,0.));
#418=CARTESIAN_POINT('',(78.1500011771917,-5.00000013411045,21.1));
#419=CARTESIAN_POINT('',(78.1500011771917,-5.00000013411045,21.1));
#420=CARTESIAN_POINT('Origin',(75.0000011771917,-5.00000013411045,21.1));
#421=CARTESIAN_POINT('Origin',(75.0000011771917,-5.00000013411045,21.1));
#422=CARTESIAN_POINT('Origin',(46.500000692904,8.50000012665987,0.));
#423=CARTESIAN_POINT('',(4.44089209850063E-16,-5.55111512312578E-17,0.));
#424=CARTESIAN_POINT('',(-33.0981952215708,0.00610012264083614,-2.54700590519572));
#425=UNCERTAINTY_MEASURE_WITH_UNIT(LENGTH_MEASURE(0.01),#433,
'DISTANCE_ACCURACY_VALUE',
'Maximum model space distance between geometric entities at asserted c
onnectivities');
#426=UNCERTAINTY_MEASURE_WITH_UNIT(LENGTH_MEASURE(0.01),#433,
'DISTANCE_ACCURACY_VALUE',
'Maximum model space distance between geometric entities at asserted c
onnectivities');
#427=UNCERTAINTY_MEASURE_WITH_UNIT(LENGTH_MEASURE(0.01),#433,
'DISTANCE_ACCURACY_VALUE',
'Maximum model space distance between geometric entities at asserted c
onnectivities');
#428=UNCERTAINTY_MEASURE_WITH_UNIT(LENGTH_MEASURE(0.01),#433,
'DISTANCE_ACCURACY_VALUE',
'Maximum model space distance between geometric entities at asserted c
onnectivities');
#429=(
GEOMETRIC_REPRESENTATION_CONTEXT(3)
GLOBAL_UNCERTAINTY_ASSIGNED_CONTEXT((#425))
GLOBAL_UNIT_ASSIGNED_CONTEXT((#433,#435,#436))
REPRESENTATION_CONTEXT('','3D')
);
#430=(
GEOMETRIC_REPRESENTATION_CONTEXT(3)
GLOBAL_UNCERTAINTY_ASSIGNED_CONTEXT((#426))
GLOBAL_UNIT_ASSIGNED_CONTEXT((#433,#435,#436))
REPRESENTATION_CONTEXT('','3D')
);
#431=(
GEOMETRIC_REPRESENTATION_CONTEXT(3)
GLOBAL_UNCERTAINTY_ASSIGNED_CONTEXT((#427))
GLOBAL_UNIT_ASSIGNED_CONTEXT((#433,#435,#436))
REPRESENTATION_CONTEXT('','3D')
);
#432=(
GEOMETRIC_REPRESENTATION_CONTEXT(3)
GLOBAL_UNCERTAINTY_ASSIGNED_CONTEXT((#428))
GLOBAL_UNIT_ASSIGNED_CONTEXT((#433,#435,#436))
REPRESENTATION_CONTEXT('','3D')
);
#433=(
LENGTH_UNIT()
NAMED_UNIT(*)
SI_UNIT(.MILLI.,.METRE.)
);
#434=(
LENGTH_UNIT()
NAMED_UNIT(*)
SI_UNIT($,.METRE.)
);
#435=(
NAMED_UNIT(*)
PLANE_ANGLE_UNIT()
SI_UNIT($,.RADIAN.)
);
#436=(
NAMED_UNIT(*)
SI_UNIT($,.STERADIAN.)
SOLID_ANGLE_UNIT()
);
#437=SHAPE_DEFINITION_REPRESENTATION(#440,#445);
#438=SHAPE_DEFINITION_REPRESENTATION(#441,#446);
#439=SHAPE_DEFINITION_REPRESENTATION(#442,#447);
#440=PRODUCT_DEFINITION_SHAPE('',$,#449);
#441=PRODUCT_DEFINITION_SHAPE('',$,#450);
#442=PRODUCT_DEFINITION_SHAPE('',$,#451);
#443=PRODUCT_DEFINITION_SHAPE($,$,#17);
#444=PRODUCT_DEFINITION_SHAPE($,$,#18);
#445=SHAPE_REPRESENTATION('',(#245,#281),#429);
#446=SHAPE_REPRESENTATION('',(#246,#280),#430);
#447=SHAPE_REPRESENTATION('',(#247),#431);
#448=PRODUCT_DEFINITION_CONTEXT('part definition',#459,'design');
#449=PRODUCT_DEFINITION('DC gearbox','DC gearbox v7',#452,#448);
#450=PRODUCT_DEFINITION('Housing','Housing',#453,#448);
#451=PRODUCT_DEFINITION('Component10','Component10',#454,#448);
#452=PRODUCT_DEFINITION_FORMATION('',$,#461);
#453=PRODUCT_DEFINITION_FORMATION('',$,#462);
#454=PRODUCT_DEFINITION_FORMATION('',$,#463);
#455=PRODUCT_RELATED_PRODUCT_CATEGORY('DC gearbox v7','DC gearbox v7',(#461));
#456=PRODUCT_RELATED_PRODUCT_CATEGORY('Housing','Housing',(#462));
#457=PRODUCT_RELATED_PRODUCT_CATEGORY('Component10','Component10',(#463));
#458=APPLICATION_PROTOCOL_DEFINITION('international standard',
'automotive_design',2009,#459);
#459=APPLICATION_CONTEXT(
'Core Data for Automotive Mechanical Design Process');
#460=PRODUCT_CONTEXT('part definition',#459,'mechanical');
#461=PRODUCT('DC gearbox','DC gearbox v7',$,(#460));
#462=PRODUCT('Housing','Housing',$,(#460));
#463=PRODUCT('Component10','Component10',$,(#460));
#464=PRESENTATION_STYLE_ASSIGNMENT((#465));
#465=SURFACE_STYLE_USAGE(.BOTH.,#466);
#466=SURFACE_SIDE_STYLE('',(#467));
#467=SURFACE_STYLE_FILL_AREA(#468);
#468=FILL_AREA_STYLE('Steel - Satin',(#469));
#469=FILL_AREA_STYLE_COLOUR('Steel - Satin',#470);
#470=COLOUR_RGB('Steel - Satin',0.627450980392157,0.627450980392157,0.627450980392157);
ENDSEC;
END-ISO-10303-21;
