ISO-10303-21;
HEADER;
/* Generated by software containing ST-Developer
 * from STEP Tools, Inc. (www.steptools.com) 
 */

FILE_DESCRIPTION(
/* description */ (''),
/* implementation_level */ '2;1');

FILE_NAME(
/* name */ 'Gearbox_housing_baseplate_v2.step',
/* time_stamp */ '2023-12-05T17:17:59+01:00',
/* author */ (''),
/* organization */ (''),
/* preprocessor_version */ 'ST-DEVELOPER v20',
/* originating_system */ 'Autodesk Translation Framework v12.14.0.127',

/* authorisation */ '');

FILE_SCHEMA (('AUTOMOTIVE_DESIGN { 1 0 10303 214 3 1 1 }'));
ENDSEC;

DATA;
#10=MECHANICAL_DESIGN_GEOMETRIC_PRESENTATION_REPRESENTATION('',(#17),#1558);
#11=ITEM_DEFINED_TRANSFORMATION($,$,#954,#1032);
#12=(
REPRESENTATION_RELATIONSHIP($,$,#1568,#1567)
REPRESENTATION_RELATIONSHIP_WITH_TRANSFORMATION(#11)
SHAPE_REPRESENTATION_RELATIONSHIP()
);
#13=CONTEXT_DEPENDENT_SHAPE_REPRESENTATION(#12,#1566);
#14=NEXT_ASSEMBLY_USAGE_OCCURRENCE('Housing:1','Housing:1','Housing:1',
#1570,#1571,'Housing:1');
#15=SHAPE_REPRESENTATION_RELATIONSHIP('SRR','None',#1568,#16);
#16=ADVANCED_BREP_SHAPE_REPRESENTATION('',(#18),#1557);
#17=STYLED_ITEM('',(#1581),#18);
#18=MANIFOLD_SOLID_BREP('Body1',#952);
#19=CYLINDRICAL_SURFACE('',#967,3.);
#20=CYLINDRICAL_SURFACE('',#971,3.);
#21=CYLINDRICAL_SURFACE('',#1005,1.65);
#22=CYLINDRICAL_SURFACE('',#1006,1.65);
#23=CYLINDRICAL_SURFACE('',#1007,1.65);
#24=CYLINDRICAL_SURFACE('',#1008,1.65);
#25=CYLINDRICAL_SURFACE('',#1011,1.3);
#26=CYLINDRICAL_SURFACE('',#1015,1.30000000000001);
#27=CYLINDRICAL_SURFACE('',#1021,1.65);
#28=CYLINDRICAL_SURFACE('',#1023,1.65);
#29=CYLINDRICAL_SURFACE('',#1025,3.6);
#30=FACE_BOUND('',#143,.T.);
#31=FACE_BOUND('',#144,.T.);
#32=FACE_BOUND('',#145,.T.);
#33=FACE_BOUND('',#146,.T.);
#34=FACE_BOUND('',#147,.T.);
#35=FACE_BOUND('',#148,.T.);
#36=FACE_BOUND('',#149,.T.);
#37=FACE_BOUND('',#150,.T.);
#38=FACE_BOUND('',#151,.T.);
#39=FACE_BOUND('',#162,.T.);
#40=FACE_BOUND('',#170,.T.);
#41=FACE_BOUND('',#178,.T.);
#42=FACE_BOUND('',#186,.T.);
#43=FACE_BOUND('',#196,.T.);
#44=FACE_BOUND('',#198,.T.);
#45=FACE_BOUND('',#207,.T.);
#46=FACE_BOUND('',#208,.T.);
#47=FACE_BOUND('',#209,.T.);
#48=FACE_BOUND('',#210,.T.);
#49=FACE_BOUND('',#211,.T.);
#50=FACE_BOUND('',#212,.T.);
#51=FACE_BOUND('',#213,.T.);
#52=FACE_BOUND('',#214,.T.);
#53=FACE_BOUND('',#215,.T.);
#54=PLANE('',#958);
#55=PLANE('',#973);
#56=PLANE('',#974);
#57=PLANE('',#975);
#58=PLANE('',#976);
#59=PLANE('',#977);
#60=PLANE('',#978);
#61=PLANE('',#979);
#62=PLANE('',#981);
#63=PLANE('',#982);
#64=PLANE('',#983);
#65=PLANE('',#984);
#66=PLANE('',#985);
#67=PLANE('',#986);
#68=PLANE('',#987);
#69=PLANE('',#989);
#70=PLANE('',#990);
#71=PLANE('',#991);
#72=PLANE('',#992);
#73=PLANE('',#993);
#74=PLANE('',#994);
#75=PLANE('',#995);
#76=PLANE('',#997);
#77=PLANE('',#998);
#78=PLANE('',#999);
#79=PLANE('',#1000);
#80=PLANE('',#1001);
#81=PLANE('',#1002);
#82=PLANE('',#1003);
#83=PLANE('',#1017);
#84=PLANE('',#1019);
#85=PLANE('',#1027);
#86=PLANE('',#1028);
#87=PLANE('',#1029);
#88=PLANE('',#1030);
#89=PLANE('',#1031);
#90=FACE_OUTER_BOUND('',#141,.T.);
#91=FACE_OUTER_BOUND('',#142,.T.);
#92=FACE_OUTER_BOUND('',#152,.T.);
#93=FACE_OUTER_BOUND('',#153,.T.);
#94=FACE_OUTER_BOUND('',#154,.T.);
#95=FACE_OUTER_BOUND('',#155,.T.);
#96=FACE_OUTER_BOUND('',#156,.T.);
#97=FACE_OUTER_BOUND('',#157,.T.);
#98=FACE_OUTER_BOUND('',#158,.T.);
#99=FACE_OUTER_BOUND('',#159,.T.);
#100=FACE_OUTER_BOUND('',#160,.T.);
#101=FACE_OUTER_BOUND('',#161,.T.);
#102=FACE_OUTER_BOUND('',#163,.T.);
#103=FACE_OUTER_BOUND('',#164,.T.);
#104=FACE_OUTER_BOUND('',#165,.T.);
#105=FACE_OUTER_BOUND('',#166,.T.);
#106=FACE_OUTER_BOUND('',#167,.T.);
#107=FACE_OUTER_BOUND('',#168,.T.);
#108=FACE_OUTER_BOUND('',#169,.T.);
#109=FACE_OUTER_BOUND('',#171,.T.);
#110=FACE_OUTER_BOUND('',#172,.T.);
#111=FACE_OUTER_BOUND('',#173,.T.);
#112=FACE_OUTER_BOUND('',#174,.T.);
#113=FACE_OUTER_BOUND('',#175,.T.);
#114=FACE_OUTER_BOUND('',#176,.T.);
#115=FACE_OUTER_BOUND('',#177,.T.);
#116=FACE_OUTER_BOUND('',#179,.T.);
#117=FACE_OUTER_BOUND('',#180,.T.);
#118=FACE_OUTER_BOUND('',#181,.T.);
#119=FACE_OUTER_BOUND('',#182,.T.);
#120=FACE_OUTER_BOUND('',#183,.T.);
#121=FACE_OUTER_BOUND('',#184,.T.);
#122=FACE_OUTER_BOUND('',#185,.T.);
#123=FACE_OUTER_BOUND('',#187,.T.);
#124=FACE_OUTER_BOUND('',#188,.T.);
#125=FACE_OUTER_BOUND('',#189,.T.);
#126=FACE_OUTER_BOUND('',#190,.T.);
#127=FACE_OUTER_BOUND('',#191,.T.);
#128=FACE_OUTER_BOUND('',#192,.T.);
#129=FACE_OUTER_BOUND('',#193,.T.);
#130=FACE_OUTER_BOUND('',#194,.T.);
#131=FACE_OUTER_BOUND('',#195,.T.);
#132=FACE_OUTER_BOUND('',#197,.T.);
#133=FACE_OUTER_BOUND('',#199,.T.);
#134=FACE_OUTER_BOUND('',#200,.T.);
#135=FACE_OUTER_BOUND('',#201,.T.);
#136=FACE_OUTER_BOUND('',#202,.T.);
#137=FACE_OUTER_BOUND('',#203,.T.);
#138=FACE_OUTER_BOUND('',#204,.T.);
#139=FACE_OUTER_BOUND('',#205,.T.);
#140=FACE_OUTER_BOUND('',#206,.T.);
#141=EDGE_LOOP('',(#647,#648,#649,#650));
#142=EDGE_LOOP('',(#651,#652,#653,#654));
#143=EDGE_LOOP('',(#655));
#144=EDGE_LOOP('',(#656));
#145=EDGE_LOOP('',(#657));
#146=EDGE_LOOP('',(#658));
#147=EDGE_LOOP('',(#659));
#148=EDGE_LOOP('',(#660));
#149=EDGE_LOOP('',(#661));
#150=EDGE_LOOP('',(#662));
#151=EDGE_LOOP('',(#663));
#152=EDGE_LOOP('',(#664,#665,#666,#667));
#153=EDGE_LOOP('',(#668,#669,#670,#671));
#154=EDGE_LOOP('',(#672,#673,#674,#675));
#155=EDGE_LOOP('',(#676,#677,#678,#679));
#156=EDGE_LOOP('',(#680,#681,#682,#683));
#157=EDGE_LOOP('',(#684,#685,#686,#687));
#158=EDGE_LOOP('',(#688,#689,#690,#691));
#159=EDGE_LOOP('',(#692,#693,#694,#695));
#160=EDGE_LOOP('',(#696,#697,#698,#699));
#161=EDGE_LOOP('',(#700,#701,#702,#703,#704,#705));
#162=EDGE_LOOP('',(#706));
#163=EDGE_LOOP('',(#707,#708,#709,#710));
#164=EDGE_LOOP('',(#711,#712,#713,#714));
#165=EDGE_LOOP('',(#715,#716,#717,#718));
#166=EDGE_LOOP('',(#719,#720,#721,#722));
#167=EDGE_LOOP('',(#723,#724,#725,#726));
#168=EDGE_LOOP('',(#727,#728,#729,#730));
#169=EDGE_LOOP('',(#731,#732,#733,#734,#735,#736));
#170=EDGE_LOOP('',(#737));
#171=EDGE_LOOP('',(#738,#739,#740,#741));
#172=EDGE_LOOP('',(#742,#743,#744,#745));
#173=EDGE_LOOP('',(#746,#747,#748,#749));
#174=EDGE_LOOP('',(#750,#751,#752,#753));
#175=EDGE_LOOP('',(#754,#755,#756,#757));
#176=EDGE_LOOP('',(#758,#759,#760,#761));
#177=EDGE_LOOP('',(#762,#763,#764,#765,#766,#767));
#178=EDGE_LOOP('',(#768));
#179=EDGE_LOOP('',(#769,#770,#771,#772));
#180=EDGE_LOOP('',(#773,#774,#775,#776));
#181=EDGE_LOOP('',(#777,#778,#779,#780));
#182=EDGE_LOOP('',(#781,#782,#783,#784));
#183=EDGE_LOOP('',(#785,#786,#787,#788));
#184=EDGE_LOOP('',(#789,#790,#791,#792));
#185=EDGE_LOOP('',(#793,#794,#795,#796,#797,#798));
#186=EDGE_LOOP('',(#799));
#187=EDGE_LOOP('',(#800,#801,#802,#803));
#188=EDGE_LOOP('',(#804,#805,#806,#807));
#189=EDGE_LOOP('',(#808,#809,#810,#811));
#190=EDGE_LOOP('',(#812,#813,#814,#815));
#191=EDGE_LOOP('',(#816,#817,#818,#819));
#192=EDGE_LOOP('',(#820,#821,#822,#823));
#193=EDGE_LOOP('',(#824,#825,#826,#827));
#194=EDGE_LOOP('',(#828,#829,#830,#831));
#195=EDGE_LOOP('',(#832));
#196=EDGE_LOOP('',(#833));
#197=EDGE_LOOP('',(#834));
#198=EDGE_LOOP('',(#835));
#199=EDGE_LOOP('',(#836,#837,#838,#839));
#200=EDGE_LOOP('',(#840,#841,#842,#843));
#201=EDGE_LOOP('',(#844,#845,#846,#847));
#202=EDGE_LOOP('',(#848,#849,#850,#851));
#203=EDGE_LOOP('',(#852,#853,#854,#855));
#204=EDGE_LOOP('',(#856,#857,#858,#859));
#205=EDGE_LOOP('',(#860,#861,#862,#863));
#206=EDGE_LOOP('',(#864,#865,#866,#867));
#207=EDGE_LOOP('',(#868,#869,#870,#871,#872,#873));
#208=EDGE_LOOP('',(#874,#875,#876,#877,#878,#879));
#209=EDGE_LOOP('',(#880,#881,#882,#883,#884,#885));
#210=EDGE_LOOP('',(#886,#887,#888,#889,#890,#891));
#211=EDGE_LOOP('',(#892));
#212=EDGE_LOOP('',(#893));
#213=EDGE_LOOP('',(#894));
#214=EDGE_LOOP('',(#895));
#215=EDGE_LOOP('',(#896));
#216=LINE('',#1298,#315);
#217=LINE('',#1303,#316);
#218=LINE('',#1305,#317);
#219=LINE('',#1307,#318);
#220=LINE('',#1308,#319);
#221=LINE('',#1328,#320);
#222=LINE('',#1331,#321);
#223=LINE('',#1336,#322);
#224=LINE('',#1340,#323);
#225=LINE('',#1342,#324);
#226=LINE('',#1344,#325);
#227=LINE('',#1345,#326);
#228=LINE('',#1348,#327);
#229=LINE('',#1350,#328);
#230=LINE('',#1351,#329);
#231=LINE('',#1354,#330);
#232=LINE('',#1356,#331);
#233=LINE('',#1357,#332);
#234=LINE('',#1360,#333);
#235=LINE('',#1362,#334);
#236=LINE('',#1363,#335);
#237=LINE('',#1366,#336);
#238=LINE('',#1368,#337);
#239=LINE('',#1369,#338);
#240=LINE('',#1371,#339);
#241=LINE('',#1372,#340);
#242=LINE('',#1379,#341);
#243=LINE('',#1381,#342);
#244=LINE('',#1383,#343);
#245=LINE('',#1384,#344);
#246=LINE('',#1387,#345);
#247=LINE('',#1389,#346);
#248=LINE('',#1390,#347);
#249=LINE('',#1393,#348);
#250=LINE('',#1395,#349);
#251=LINE('',#1396,#350);
#252=LINE('',#1399,#351);
#253=LINE('',#1401,#352);
#254=LINE('',#1402,#353);
#255=LINE('',#1405,#354);
#256=LINE('',#1407,#355);
#257=LINE('',#1408,#356);
#258=LINE('',#1410,#357);
#259=LINE('',#1411,#358);
#260=LINE('',#1418,#359);
#261=LINE('',#1420,#360);
#262=LINE('',#1422,#361);
#263=LINE('',#1423,#362);
#264=LINE('',#1426,#363);
#265=LINE('',#1428,#364);
#266=LINE('',#1429,#365);
#267=LINE('',#1432,#366);
#268=LINE('',#1434,#367);
#269=LINE('',#1435,#368);
#270=LINE('',#1438,#369);
#271=LINE('',#1440,#370);
#272=LINE('',#1441,#371);
#273=LINE('',#1444,#372);
#274=LINE('',#1446,#373);
#275=LINE('',#1447,#374);
#276=LINE('',#1449,#375);
#277=LINE('',#1450,#376);
#278=LINE('',#1457,#377);
#279=LINE('',#1459,#378);
#280=LINE('',#1461,#379);
#281=LINE('',#1462,#380);
#282=LINE('',#1465,#381);
#283=LINE('',#1467,#382);
#284=LINE('',#1468,#383);
#285=LINE('',#1471,#384);
#286=LINE('',#1473,#385);
#287=LINE('',#1474,#386);
#288=LINE('',#1477,#387);
#289=LINE('',#1479,#388);
#290=LINE('',#1480,#389);
#291=LINE('',#1483,#390);
#292=LINE('',#1485,#391);
#293=LINE('',#1486,#392);
#294=LINE('',#1488,#393);
#295=LINE('',#1489,#394);
#296=LINE('',#1494,#395);
#297=LINE('',#1496,#396);
#298=LINE('',#1498,#397);
#299=LINE('',#1500,#398);
#300=LINE('',#1503,#399);
#301=LINE('',#1507,#400);
#302=LINE('',#1511,#401);
#303=LINE('',#1515,#402);
#304=LINE('',#1525,#403);
#305=LINE('',#1529,#404);
#306=LINE('',#1533,#405);
#307=LINE('',#1537,#406);
#308=LINE('',#1539,#407);
#309=LINE('',#1540,#408);
#310=LINE('',#1543,#409);
#311=LINE('',#1544,#410);
#312=LINE('',#1547,#411);
#313=LINE('',#1548,#412);
#314=LINE('',#1550,#413);
#315=VECTOR('',#1041,5.);
#316=VECTOR('',#1046,10.);
#317=VECTOR('',#1047,10.);
#318=VECTOR('',#1048,10.);
#319=VECTOR('',#1049,10.);
#320=VECTOR('',#1070,3.);
#321=VECTOR('',#1073,4.);
#322=VECTOR('',#1080,3.);
#323=VECTOR('',#1083,10.);
#324=VECTOR('',#1084,10.);
#325=VECTOR('',#1085,10.);
#326=VECTOR('',#1086,10.);
#327=VECTOR('',#1089,10.);
#328=VECTOR('',#1090,10.);
#329=VECTOR('',#1091,10.);
#330=VECTOR('',#1094,10.);
#331=VECTOR('',#1095,10.);
#332=VECTOR('',#1096,10.);
#333=VECTOR('',#1099,10.);
#334=VECTOR('',#1100,10.);
#335=VECTOR('',#1101,10.);
#336=VECTOR('',#1104,10.);
#337=VECTOR('',#1105,10.);
#338=VECTOR('',#1106,10.);
#339=VECTOR('',#1109,10.);
#340=VECTOR('',#1110,10.);
#341=VECTOR('',#1117,10.);
#342=VECTOR('',#1118,10.);
#343=VECTOR('',#1119,10.);
#344=VECTOR('',#1120,10.);
#345=VECTOR('',#1123,10.);
#346=VECTOR('',#1124,10.);
#347=VECTOR('',#1125,10.);
#348=VECTOR('',#1128,10.);
#349=VECTOR('',#1129,10.);
#350=VECTOR('',#1130,10.);
#351=VECTOR('',#1133,10.);
#352=VECTOR('',#1134,10.);
#353=VECTOR('',#1135,10.);
#354=VECTOR('',#1138,10.);
#355=VECTOR('',#1139,10.);
#356=VECTOR('',#1140,10.);
#357=VECTOR('',#1143,10.);
#358=VECTOR('',#1144,10.);
#359=VECTOR('',#1151,10.);
#360=VECTOR('',#1152,10.);
#361=VECTOR('',#1153,10.);
#362=VECTOR('',#1154,10.);
#363=VECTOR('',#1157,10.);
#364=VECTOR('',#1158,10.);
#365=VECTOR('',#1159,10.);
#366=VECTOR('',#1162,10.);
#367=VECTOR('',#1163,10.);
#368=VECTOR('',#1164,10.);
#369=VECTOR('',#1167,10.);
#370=VECTOR('',#1168,10.);
#371=VECTOR('',#1169,10.);
#372=VECTOR('',#1172,10.);
#373=VECTOR('',#1173,10.);
#374=VECTOR('',#1174,10.);
#375=VECTOR('',#1177,10.);
#376=VECTOR('',#1178,10.);
#377=VECTOR('',#1185,10.);
#378=VECTOR('',#1186,10.);
#379=VECTOR('',#1187,10.);
#380=VECTOR('',#1188,10.);
#381=VECTOR('',#1191,10.);
#382=VECTOR('',#1192,10.);
#383=VECTOR('',#1193,10.);
#384=VECTOR('',#1196,10.);
#385=VECTOR('',#1197,10.);
#386=VECTOR('',#1198,10.);
#387=VECTOR('',#1201,10.);
#388=VECTOR('',#1202,10.);
#389=VECTOR('',#1203,10.);
#390=VECTOR('',#1206,10.);
#391=VECTOR('',#1207,10.);
#392=VECTOR('',#1208,10.);
#393=VECTOR('',#1211,10.);
#394=VECTOR('',#1212,10.);
#395=VECTOR('',#1219,1.65);
#396=VECTOR('',#1222,1.65);
#397=VECTOR('',#1225,1.65);
#398=VECTOR('',#1228,1.65);
#399=VECTOR('',#1231,2.05);
#400=VECTOR('',#1236,1.3);
#401=VECTOR('',#1241,2.05000000000001);
#402=VECTOR('',#1246,1.30000000000001);
#403=VECTOR('',#1259,1.65);
#404=VECTOR('',#1264,1.65);
#405=VECTOR('',#1269,3.6);
#406=VECTOR('',#1274,10.);
#407=VECTOR('',#1275,10.);
#408=VECTOR('',#1276,10.);
#409=VECTOR('',#1279,10.);
#410=VECTOR('',#1280,10.);
#411=VECTOR('',#1283,10.);
#412=VECTOR('',#1284,10.);
#413=VECTOR('',#1287,10.);
#414=CIRCLE('',#956,7.);
#415=CIRCLE('',#957,3.);
#416=CIRCLE('',#959,5.);
#417=CIRCLE('',#960,1.65);
#418=CIRCLE('',#961,1.65);
#419=CIRCLE('',#962,1.65);
#420=CIRCLE('',#963,1.65);
#421=CIRCLE('',#964,2.80000000000001);
#422=CIRCLE('',#965,3.6);
#423=CIRCLE('',#966,2.8);
#424=CIRCLE('',#968,3.);
#425=CIRCLE('',#970,3.);
#426=CIRCLE('',#972,3.);
#427=CIRCLE('',#980,1.65);
#428=CIRCLE('',#988,1.65);
#429=CIRCLE('',#996,1.65);
#430=CIRCLE('',#1004,1.65);
#431=CIRCLE('',#1010,1.3);
#432=CIRCLE('',#1012,1.3);
#433=CIRCLE('',#1014,1.30000000000001);
#434=CIRCLE('',#1016,1.30000000000001);
#435=CIRCLE('',#1018,1.65);
#436=CIRCLE('',#1020,1.65);
#437=CIRCLE('',#1022,1.65);
#438=CIRCLE('',#1024,1.65);
#439=CIRCLE('',#1026,3.6);
#440=VERTEX_POINT('',#1295);
#441=VERTEX_POINT('',#1297);
#442=VERTEX_POINT('',#1301);
#443=VERTEX_POINT('',#1302);
#444=VERTEX_POINT('',#1304);
#445=VERTEX_POINT('',#1306);
#446=VERTEX_POINT('',#1309);
#447=VERTEX_POINT('',#1311);
#448=VERTEX_POINT('',#1313);
#449=VERTEX_POINT('',#1315);
#450=VERTEX_POINT('',#1317);
#451=VERTEX_POINT('',#1319);
#452=VERTEX_POINT('',#1321);
#453=VERTEX_POINT('',#1323);
#454=VERTEX_POINT('',#1326);
#455=VERTEX_POINT('',#1330);
#456=VERTEX_POINT('',#1334);
#457=VERTEX_POINT('',#1338);
#458=VERTEX_POINT('',#1339);
#459=VERTEX_POINT('',#1341);
#460=VERTEX_POINT('',#1343);
#461=VERTEX_POINT('',#1347);
#462=VERTEX_POINT('',#1349);
#463=VERTEX_POINT('',#1353);
#464=VERTEX_POINT('',#1355);
#465=VERTEX_POINT('',#1359);
#466=VERTEX_POINT('',#1361);
#467=VERTEX_POINT('',#1365);
#468=VERTEX_POINT('',#1367);
#469=VERTEX_POINT('',#1374);
#470=VERTEX_POINT('',#1377);
#471=VERTEX_POINT('',#1378);
#472=VERTEX_POINT('',#1380);
#473=VERTEX_POINT('',#1382);
#474=VERTEX_POINT('',#1386);
#475=VERTEX_POINT('',#1388);
#476=VERTEX_POINT('',#1392);
#477=VERTEX_POINT('',#1394);
#478=VERTEX_POINT('',#1398);
#479=VERTEX_POINT('',#1400);
#480=VERTEX_POINT('',#1404);
#481=VERTEX_POINT('',#1406);
#482=VERTEX_POINT('',#1413);
#483=VERTEX_POINT('',#1416);
#484=VERTEX_POINT('',#1417);
#485=VERTEX_POINT('',#1419);
#486=VERTEX_POINT('',#1421);
#487=VERTEX_POINT('',#1425);
#488=VERTEX_POINT('',#1427);
#489=VERTEX_POINT('',#1431);
#490=VERTEX_POINT('',#1433);
#491=VERTEX_POINT('',#1437);
#492=VERTEX_POINT('',#1439);
#493=VERTEX_POINT('',#1443);
#494=VERTEX_POINT('',#1445);
#495=VERTEX_POINT('',#1452);
#496=VERTEX_POINT('',#1455);
#497=VERTEX_POINT('',#1456);
#498=VERTEX_POINT('',#1458);
#499=VERTEX_POINT('',#1460);
#500=VERTEX_POINT('',#1464);
#501=VERTEX_POINT('',#1466);
#502=VERTEX_POINT('',#1470);
#503=VERTEX_POINT('',#1472);
#504=VERTEX_POINT('',#1476);
#505=VERTEX_POINT('',#1478);
#506=VERTEX_POINT('',#1482);
#507=VERTEX_POINT('',#1484);
#508=VERTEX_POINT('',#1491);
#509=VERTEX_POINT('',#1502);
#510=VERTEX_POINT('',#1506);
#511=VERTEX_POINT('',#1510);
#512=VERTEX_POINT('',#1514);
#513=VERTEX_POINT('',#1518);
#514=VERTEX_POINT('',#1521);
#515=VERTEX_POINT('',#1524);
#516=VERTEX_POINT('',#1528);
#517=VERTEX_POINT('',#1532);
#518=VERTEX_POINT('',#1536);
#519=VERTEX_POINT('',#1538);
#520=VERTEX_POINT('',#1542);
#521=VERTEX_POINT('',#1546);
#522=EDGE_CURVE('',#440,#440,#414,.T.);
#523=EDGE_CURVE('',#440,#441,#216,.T.);
#524=EDGE_CURVE('',#441,#441,#415,.T.);
#525=EDGE_CURVE('',#442,#443,#217,.T.);
#526=EDGE_CURVE('',#443,#444,#218,.T.);
#527=EDGE_CURVE('',#444,#445,#219,.T.);
#528=EDGE_CURVE('',#445,#442,#220,.T.);
#529=EDGE_CURVE('',#446,#446,#416,.T.);
#530=EDGE_CURVE('',#447,#447,#417,.T.);
#531=EDGE_CURVE('',#448,#448,#418,.T.);
#532=EDGE_CURVE('',#449,#449,#419,.T.);
#533=EDGE_CURVE('',#450,#450,#420,.T.);
#534=EDGE_CURVE('',#451,#451,#421,.T.);
#535=EDGE_CURVE('',#452,#452,#422,.T.);
#536=EDGE_CURVE('',#453,#453,#423,.T.);
#537=EDGE_CURVE('',#454,#454,#424,.T.);
#538=EDGE_CURVE('',#454,#441,#221,.T.);
#539=EDGE_CURVE('',#446,#455,#222,.T.);
#540=EDGE_CURVE('',#455,#455,#425,.T.);
#541=EDGE_CURVE('',#456,#456,#426,.T.);
#542=EDGE_CURVE('',#456,#455,#223,.T.);
#543=EDGE_CURVE('',#457,#458,#224,.T.);
#544=EDGE_CURVE('',#457,#459,#225,.T.);
#545=EDGE_CURVE('',#459,#460,#226,.T.);
#546=EDGE_CURVE('',#458,#460,#227,.T.);
#547=EDGE_CURVE('',#461,#457,#228,.T.);
#548=EDGE_CURVE('',#461,#462,#229,.T.);
#549=EDGE_CURVE('',#462,#459,#230,.T.);
#550=EDGE_CURVE('',#463,#461,#231,.T.);
#551=EDGE_CURVE('',#463,#464,#232,.T.);
#552=EDGE_CURVE('',#464,#462,#233,.T.);
#553=EDGE_CURVE('',#465,#463,#234,.T.);
#554=EDGE_CURVE('',#465,#466,#235,.T.);
#555=EDGE_CURVE('',#466,#464,#236,.T.);
#556=EDGE_CURVE('',#467,#465,#237,.T.);
#557=EDGE_CURVE('',#467,#468,#238,.T.);
#558=EDGE_CURVE('',#468,#466,#239,.T.);
#559=EDGE_CURVE('',#458,#467,#240,.T.);
#560=EDGE_CURVE('',#460,#468,#241,.T.);
#561=EDGE_CURVE('',#469,#469,#427,.T.);
#562=EDGE_CURVE('',#470,#471,#242,.T.);
#563=EDGE_CURVE('',#470,#472,#243,.T.);
#564=EDGE_CURVE('',#472,#473,#244,.T.);
#565=EDGE_CURVE('',#471,#473,#245,.T.);
#566=EDGE_CURVE('',#474,#470,#246,.T.);
#567=EDGE_CURVE('',#474,#475,#247,.T.);
#568=EDGE_CURVE('',#475,#472,#248,.T.);
#569=EDGE_CURVE('',#476,#474,#249,.T.);
#570=EDGE_CURVE('',#476,#477,#250,.T.);
#571=EDGE_CURVE('',#477,#475,#251,.T.);
#572=EDGE_CURVE('',#478,#476,#252,.T.);
#573=EDGE_CURVE('',#478,#479,#253,.T.);
#574=EDGE_CURVE('',#479,#477,#254,.T.);
#575=EDGE_CURVE('',#480,#478,#255,.T.);
#576=EDGE_CURVE('',#480,#481,#256,.T.);
#577=EDGE_CURVE('',#481,#479,#257,.T.);
#578=EDGE_CURVE('',#471,#480,#258,.T.);
#579=EDGE_CURVE('',#473,#481,#259,.T.);
#580=EDGE_CURVE('',#482,#482,#428,.T.);
#581=EDGE_CURVE('',#483,#484,#260,.T.);
#582=EDGE_CURVE('',#483,#485,#261,.T.);
#583=EDGE_CURVE('',#485,#486,#262,.T.);
#584=EDGE_CURVE('',#484,#486,#263,.T.);
#585=EDGE_CURVE('',#487,#483,#264,.T.);
#586=EDGE_CURVE('',#487,#488,#265,.T.);
#587=EDGE_CURVE('',#488,#485,#266,.T.);
#588=EDGE_CURVE('',#489,#487,#267,.T.);
#589=EDGE_CURVE('',#489,#490,#268,.T.);
#590=EDGE_CURVE('',#490,#488,#269,.T.);
#591=EDGE_CURVE('',#491,#489,#270,.T.);
#592=EDGE_CURVE('',#491,#492,#271,.T.);
#593=EDGE_CURVE('',#492,#490,#272,.T.);
#594=EDGE_CURVE('',#493,#491,#273,.T.);
#595=EDGE_CURVE('',#493,#494,#274,.T.);
#596=EDGE_CURVE('',#494,#492,#275,.T.);
#597=EDGE_CURVE('',#484,#493,#276,.T.);
#598=EDGE_CURVE('',#486,#494,#277,.T.);
#599=EDGE_CURVE('',#495,#495,#429,.T.);
#600=EDGE_CURVE('',#496,#497,#278,.T.);
#601=EDGE_CURVE('',#496,#498,#279,.T.);
#602=EDGE_CURVE('',#498,#499,#280,.T.);
#603=EDGE_CURVE('',#497,#499,#281,.T.);
#604=EDGE_CURVE('',#500,#496,#282,.T.);
#605=EDGE_CURVE('',#500,#501,#283,.T.);
#606=EDGE_CURVE('',#501,#498,#284,.T.);
#607=EDGE_CURVE('',#502,#500,#285,.T.);
#608=EDGE_CURVE('',#502,#503,#286,.T.);
#609=EDGE_CURVE('',#503,#501,#287,.T.);
#610=EDGE_CURVE('',#504,#502,#288,.T.);
#611=EDGE_CURVE('',#504,#505,#289,.T.);
#612=EDGE_CURVE('',#505,#503,#290,.T.);
#613=EDGE_CURVE('',#506,#504,#291,.T.);
#614=EDGE_CURVE('',#506,#507,#292,.T.);
#615=EDGE_CURVE('',#507,#505,#293,.T.);
#616=EDGE_CURVE('',#497,#506,#294,.T.);
#617=EDGE_CURVE('',#499,#507,#295,.T.);
#618=EDGE_CURVE('',#508,#508,#430,.T.);
#619=EDGE_CURVE('',#447,#495,#296,.T.);
#620=EDGE_CURVE('',#448,#482,#297,.T.);
#621=EDGE_CURVE('',#449,#508,#298,.T.);
#622=EDGE_CURVE('',#450,#469,#299,.T.);
#623=EDGE_CURVE('',#453,#509,#300,.T.);
#624=EDGE_CURVE('',#509,#509,#431,.T.);
#625=EDGE_CURVE('',#509,#510,#301,.T.);
#626=EDGE_CURVE('',#510,#510,#432,.T.);
#627=EDGE_CURVE('',#451,#511,#302,.T.);
#628=EDGE_CURVE('',#511,#511,#433,.T.);
#629=EDGE_CURVE('',#511,#512,#303,.T.);
#630=EDGE_CURVE('',#512,#512,#434,.T.);
#631=EDGE_CURVE('',#513,#513,#435,.T.);
#632=EDGE_CURVE('',#514,#514,#436,.T.);
#633=EDGE_CURVE('',#513,#515,#304,.T.);
#634=EDGE_CURVE('',#515,#515,#437,.T.);
#635=EDGE_CURVE('',#514,#516,#305,.T.);
#636=EDGE_CURVE('',#516,#516,#438,.T.);
#637=EDGE_CURVE('',#452,#517,#306,.T.);
#638=EDGE_CURVE('',#517,#517,#439,.T.);
#639=EDGE_CURVE('',#443,#518,#307,.T.);
#640=EDGE_CURVE('',#519,#518,#308,.T.);
#641=EDGE_CURVE('',#444,#519,#309,.T.);
#642=EDGE_CURVE('',#520,#519,#310,.T.);
#643=EDGE_CURVE('',#445,#520,#311,.T.);
#644=EDGE_CURVE('',#521,#520,#312,.T.);
#645=EDGE_CURVE('',#442,#521,#313,.T.);
#646=EDGE_CURVE('',#518,#521,#314,.T.);
#647=ORIENTED_EDGE('',*,*,#522,.T.);
#648=ORIENTED_EDGE('',*,*,#523,.T.);
#649=ORIENTED_EDGE('',*,*,#524,.T.);
#650=ORIENTED_EDGE('',*,*,#523,.F.);
#651=ORIENTED_EDGE('',*,*,#525,.T.);
#652=ORIENTED_EDGE('',*,*,#526,.T.);
#653=ORIENTED_EDGE('',*,*,#527,.T.);
#654=ORIENTED_EDGE('',*,*,#528,.T.);
#655=ORIENTED_EDGE('',*,*,#529,.F.);
#656=ORIENTED_EDGE('',*,*,#530,.T.);
#657=ORIENTED_EDGE('',*,*,#531,.T.);
#658=ORIENTED_EDGE('',*,*,#532,.T.);
#659=ORIENTED_EDGE('',*,*,#533,.T.);
#660=ORIENTED_EDGE('',*,*,#534,.F.);
#661=ORIENTED_EDGE('',*,*,#535,.T.);
#662=ORIENTED_EDGE('',*,*,#536,.F.);
#663=ORIENTED_EDGE('',*,*,#522,.F.);
#664=ORIENTED_EDGE('',*,*,#537,.F.);
#665=ORIENTED_EDGE('',*,*,#538,.T.);
#666=ORIENTED_EDGE('',*,*,#524,.F.);
#667=ORIENTED_EDGE('',*,*,#538,.F.);
#668=ORIENTED_EDGE('',*,*,#529,.T.);
#669=ORIENTED_EDGE('',*,*,#539,.T.);
#670=ORIENTED_EDGE('',*,*,#540,.T.);
#671=ORIENTED_EDGE('',*,*,#539,.F.);
#672=ORIENTED_EDGE('',*,*,#541,.F.);
#673=ORIENTED_EDGE('',*,*,#542,.T.);
#674=ORIENTED_EDGE('',*,*,#540,.F.);
#675=ORIENTED_EDGE('',*,*,#542,.F.);
#676=ORIENTED_EDGE('',*,*,#543,.F.);
#677=ORIENTED_EDGE('',*,*,#544,.T.);
#678=ORIENTED_EDGE('',*,*,#545,.T.);
#679=ORIENTED_EDGE('',*,*,#546,.F.);
#680=ORIENTED_EDGE('',*,*,#547,.F.);
#681=ORIENTED_EDGE('',*,*,#548,.T.);
#682=ORIENTED_EDGE('',*,*,#549,.T.);
#683=ORIENTED_EDGE('',*,*,#544,.F.);
#684=ORIENTED_EDGE('',*,*,#550,.F.);
#685=ORIENTED_EDGE('',*,*,#551,.T.);
#686=ORIENTED_EDGE('',*,*,#552,.T.);
#687=ORIENTED_EDGE('',*,*,#548,.F.);
#688=ORIENTED_EDGE('',*,*,#553,.F.);
#689=ORIENTED_EDGE('',*,*,#554,.T.);
#690=ORIENTED_EDGE('',*,*,#555,.T.);
#691=ORIENTED_EDGE('',*,*,#551,.F.);
#692=ORIENTED_EDGE('',*,*,#556,.F.);
#693=ORIENTED_EDGE('',*,*,#557,.T.);
#694=ORIENTED_EDGE('',*,*,#558,.T.);
#695=ORIENTED_EDGE('',*,*,#554,.F.);
#696=ORIENTED_EDGE('',*,*,#559,.F.);
#697=ORIENTED_EDGE('',*,*,#546,.T.);
#698=ORIENTED_EDGE('',*,*,#560,.T.);
#699=ORIENTED_EDGE('',*,*,#557,.F.);
#700=ORIENTED_EDGE('',*,*,#560,.F.);
#701=ORIENTED_EDGE('',*,*,#545,.F.);
#702=ORIENTED_EDGE('',*,*,#549,.F.);
#703=ORIENTED_EDGE('',*,*,#552,.F.);
#704=ORIENTED_EDGE('',*,*,#555,.F.);
#705=ORIENTED_EDGE('',*,*,#558,.F.);
#706=ORIENTED_EDGE('',*,*,#561,.F.);
#707=ORIENTED_EDGE('',*,*,#562,.F.);
#708=ORIENTED_EDGE('',*,*,#563,.T.);
#709=ORIENTED_EDGE('',*,*,#564,.T.);
#710=ORIENTED_EDGE('',*,*,#565,.F.);
#711=ORIENTED_EDGE('',*,*,#566,.F.);
#712=ORIENTED_EDGE('',*,*,#567,.T.);
#713=ORIENTED_EDGE('',*,*,#568,.T.);
#714=ORIENTED_EDGE('',*,*,#563,.F.);
#715=ORIENTED_EDGE('',*,*,#569,.F.);
#716=ORIENTED_EDGE('',*,*,#570,.T.);
#717=ORIENTED_EDGE('',*,*,#571,.T.);
#718=ORIENTED_EDGE('',*,*,#567,.F.);
#719=ORIENTED_EDGE('',*,*,#572,.F.);
#720=ORIENTED_EDGE('',*,*,#573,.T.);
#721=ORIENTED_EDGE('',*,*,#574,.T.);
#722=ORIENTED_EDGE('',*,*,#570,.F.);
#723=ORIENTED_EDGE('',*,*,#575,.F.);
#724=ORIENTED_EDGE('',*,*,#576,.T.);
#725=ORIENTED_EDGE('',*,*,#577,.T.);
#726=ORIENTED_EDGE('',*,*,#573,.F.);
#727=ORIENTED_EDGE('',*,*,#578,.F.);
#728=ORIENTED_EDGE('',*,*,#565,.T.);
#729=ORIENTED_EDGE('',*,*,#579,.T.);
#730=ORIENTED_EDGE('',*,*,#576,.F.);
#731=ORIENTED_EDGE('',*,*,#579,.F.);
#732=ORIENTED_EDGE('',*,*,#564,.F.);
#733=ORIENTED_EDGE('',*,*,#568,.F.);
#734=ORIENTED_EDGE('',*,*,#571,.F.);
#735=ORIENTED_EDGE('',*,*,#574,.F.);
#736=ORIENTED_EDGE('',*,*,#577,.F.);
#737=ORIENTED_EDGE('',*,*,#580,.F.);
#738=ORIENTED_EDGE('',*,*,#581,.F.);
#739=ORIENTED_EDGE('',*,*,#582,.T.);
#740=ORIENTED_EDGE('',*,*,#583,.T.);
#741=ORIENTED_EDGE('',*,*,#584,.F.);
#742=ORIENTED_EDGE('',*,*,#585,.F.);
#743=ORIENTED_EDGE('',*,*,#586,.T.);
#744=ORIENTED_EDGE('',*,*,#587,.T.);
#745=ORIENTED_EDGE('',*,*,#582,.F.);
#746=ORIENTED_EDGE('',*,*,#588,.F.);
#747=ORIENTED_EDGE('',*,*,#589,.T.);
#748=ORIENTED_EDGE('',*,*,#590,.T.);
#749=ORIENTED_EDGE('',*,*,#586,.F.);
#750=ORIENTED_EDGE('',*,*,#591,.F.);
#751=ORIENTED_EDGE('',*,*,#592,.T.);
#752=ORIENTED_EDGE('',*,*,#593,.T.);
#753=ORIENTED_EDGE('',*,*,#589,.F.);
#754=ORIENTED_EDGE('',*,*,#594,.F.);
#755=ORIENTED_EDGE('',*,*,#595,.T.);
#756=ORIENTED_EDGE('',*,*,#596,.T.);
#757=ORIENTED_EDGE('',*,*,#592,.F.);
#758=ORIENTED_EDGE('',*,*,#597,.F.);
#759=ORIENTED_EDGE('',*,*,#584,.T.);
#760=ORIENTED_EDGE('',*,*,#598,.T.);
#761=ORIENTED_EDGE('',*,*,#595,.F.);
#762=ORIENTED_EDGE('',*,*,#598,.F.);
#763=ORIENTED_EDGE('',*,*,#583,.F.);
#764=ORIENTED_EDGE('',*,*,#587,.F.);
#765=ORIENTED_EDGE('',*,*,#590,.F.);
#766=ORIENTED_EDGE('',*,*,#593,.F.);
#767=ORIENTED_EDGE('',*,*,#596,.F.);
#768=ORIENTED_EDGE('',*,*,#599,.F.);
#769=ORIENTED_EDGE('',*,*,#600,.F.);
#770=ORIENTED_EDGE('',*,*,#601,.T.);
#771=ORIENTED_EDGE('',*,*,#602,.T.);
#772=ORIENTED_EDGE('',*,*,#603,.F.);
#773=ORIENTED_EDGE('',*,*,#604,.F.);
#774=ORIENTED_EDGE('',*,*,#605,.T.);
#775=ORIENTED_EDGE('',*,*,#606,.T.);
#776=ORIENTED_EDGE('',*,*,#601,.F.);
#777=ORIENTED_EDGE('',*,*,#607,.F.);
#778=ORIENTED_EDGE('',*,*,#608,.T.);
#779=ORIENTED_EDGE('',*,*,#609,.T.);
#780=ORIENTED_EDGE('',*,*,#605,.F.);
#781=ORIENTED_EDGE('',*,*,#610,.F.);
#782=ORIENTED_EDGE('',*,*,#611,.T.);
#783=ORIENTED_EDGE('',*,*,#612,.T.);
#784=ORIENTED_EDGE('',*,*,#608,.F.);
#785=ORIENTED_EDGE('',*,*,#613,.F.);
#786=ORIENTED_EDGE('',*,*,#614,.T.);
#787=ORIENTED_EDGE('',*,*,#615,.T.);
#788=ORIENTED_EDGE('',*,*,#611,.F.);
#789=ORIENTED_EDGE('',*,*,#616,.F.);
#790=ORIENTED_EDGE('',*,*,#603,.T.);
#791=ORIENTED_EDGE('',*,*,#617,.T.);
#792=ORIENTED_EDGE('',*,*,#614,.F.);
#793=ORIENTED_EDGE('',*,*,#617,.F.);
#794=ORIENTED_EDGE('',*,*,#602,.F.);
#795=ORIENTED_EDGE('',*,*,#606,.F.);
#796=ORIENTED_EDGE('',*,*,#609,.F.);
#797=ORIENTED_EDGE('',*,*,#612,.F.);
#798=ORIENTED_EDGE('',*,*,#615,.F.);
#799=ORIENTED_EDGE('',*,*,#618,.F.);
#800=ORIENTED_EDGE('',*,*,#530,.F.);
#801=ORIENTED_EDGE('',*,*,#619,.T.);
#802=ORIENTED_EDGE('',*,*,#599,.T.);
#803=ORIENTED_EDGE('',*,*,#619,.F.);
#804=ORIENTED_EDGE('',*,*,#531,.F.);
#805=ORIENTED_EDGE('',*,*,#620,.T.);
#806=ORIENTED_EDGE('',*,*,#580,.T.);
#807=ORIENTED_EDGE('',*,*,#620,.F.);
#808=ORIENTED_EDGE('',*,*,#532,.F.);
#809=ORIENTED_EDGE('',*,*,#621,.T.);
#810=ORIENTED_EDGE('',*,*,#618,.T.);
#811=ORIENTED_EDGE('',*,*,#621,.F.);
#812=ORIENTED_EDGE('',*,*,#533,.F.);
#813=ORIENTED_EDGE('',*,*,#622,.T.);
#814=ORIENTED_EDGE('',*,*,#561,.T.);
#815=ORIENTED_EDGE('',*,*,#622,.F.);
#816=ORIENTED_EDGE('',*,*,#536,.T.);
#817=ORIENTED_EDGE('',*,*,#623,.T.);
#818=ORIENTED_EDGE('',*,*,#624,.T.);
#819=ORIENTED_EDGE('',*,*,#623,.F.);
#820=ORIENTED_EDGE('',*,*,#624,.F.);
#821=ORIENTED_EDGE('',*,*,#625,.T.);
#822=ORIENTED_EDGE('',*,*,#626,.F.);
#823=ORIENTED_EDGE('',*,*,#625,.F.);
#824=ORIENTED_EDGE('',*,*,#534,.T.);
#825=ORIENTED_EDGE('',*,*,#627,.T.);
#826=ORIENTED_EDGE('',*,*,#628,.T.);
#827=ORIENTED_EDGE('',*,*,#627,.F.);
#828=ORIENTED_EDGE('',*,*,#628,.F.);
#829=ORIENTED_EDGE('',*,*,#629,.T.);
#830=ORIENTED_EDGE('',*,*,#630,.F.);
#831=ORIENTED_EDGE('',*,*,#629,.F.);
#832=ORIENTED_EDGE('',*,*,#537,.T.);
#833=ORIENTED_EDGE('',*,*,#631,.T.);
#834=ORIENTED_EDGE('',*,*,#541,.T.);
#835=ORIENTED_EDGE('',*,*,#632,.T.);
#836=ORIENTED_EDGE('',*,*,#631,.F.);
#837=ORIENTED_EDGE('',*,*,#633,.T.);
#838=ORIENTED_EDGE('',*,*,#634,.F.);
#839=ORIENTED_EDGE('',*,*,#633,.F.);
#840=ORIENTED_EDGE('',*,*,#632,.F.);
#841=ORIENTED_EDGE('',*,*,#635,.T.);
#842=ORIENTED_EDGE('',*,*,#636,.F.);
#843=ORIENTED_EDGE('',*,*,#635,.F.);
#844=ORIENTED_EDGE('',*,*,#535,.F.);
#845=ORIENTED_EDGE('',*,*,#637,.T.);
#846=ORIENTED_EDGE('',*,*,#638,.F.);
#847=ORIENTED_EDGE('',*,*,#637,.F.);
#848=ORIENTED_EDGE('',*,*,#526,.F.);
#849=ORIENTED_EDGE('',*,*,#639,.T.);
#850=ORIENTED_EDGE('',*,*,#640,.F.);
#851=ORIENTED_EDGE('',*,*,#641,.F.);
#852=ORIENTED_EDGE('',*,*,#527,.F.);
#853=ORIENTED_EDGE('',*,*,#641,.T.);
#854=ORIENTED_EDGE('',*,*,#642,.F.);
#855=ORIENTED_EDGE('',*,*,#643,.F.);
#856=ORIENTED_EDGE('',*,*,#528,.F.);
#857=ORIENTED_EDGE('',*,*,#643,.T.);
#858=ORIENTED_EDGE('',*,*,#644,.F.);
#859=ORIENTED_EDGE('',*,*,#645,.F.);
#860=ORIENTED_EDGE('',*,*,#525,.F.);
#861=ORIENTED_EDGE('',*,*,#645,.T.);
#862=ORIENTED_EDGE('',*,*,#646,.F.);
#863=ORIENTED_EDGE('',*,*,#639,.F.);
#864=ORIENTED_EDGE('',*,*,#646,.T.);
#865=ORIENTED_EDGE('',*,*,#644,.T.);
#866=ORIENTED_EDGE('',*,*,#642,.T.);
#867=ORIENTED_EDGE('',*,*,#640,.T.);
#868=ORIENTED_EDGE('',*,*,#543,.T.);
#869=ORIENTED_EDGE('',*,*,#559,.T.);
#870=ORIENTED_EDGE('',*,*,#556,.T.);
#871=ORIENTED_EDGE('',*,*,#553,.T.);
#872=ORIENTED_EDGE('',*,*,#550,.T.);
#873=ORIENTED_EDGE('',*,*,#547,.T.);
#874=ORIENTED_EDGE('',*,*,#562,.T.);
#875=ORIENTED_EDGE('',*,*,#578,.T.);
#876=ORIENTED_EDGE('',*,*,#575,.T.);
#877=ORIENTED_EDGE('',*,*,#572,.T.);
#878=ORIENTED_EDGE('',*,*,#569,.T.);
#879=ORIENTED_EDGE('',*,*,#566,.T.);
#880=ORIENTED_EDGE('',*,*,#581,.T.);
#881=ORIENTED_EDGE('',*,*,#597,.T.);
#882=ORIENTED_EDGE('',*,*,#594,.T.);
#883=ORIENTED_EDGE('',*,*,#591,.T.);
#884=ORIENTED_EDGE('',*,*,#588,.T.);
#885=ORIENTED_EDGE('',*,*,#585,.T.);
#886=ORIENTED_EDGE('',*,*,#600,.T.);
#887=ORIENTED_EDGE('',*,*,#616,.T.);
#888=ORIENTED_EDGE('',*,*,#613,.T.);
#889=ORIENTED_EDGE('',*,*,#610,.T.);
#890=ORIENTED_EDGE('',*,*,#607,.T.);
#891=ORIENTED_EDGE('',*,*,#604,.T.);
#892=ORIENTED_EDGE('',*,*,#634,.T.);
#893=ORIENTED_EDGE('',*,*,#636,.T.);
#894=ORIENTED_EDGE('',*,*,#638,.T.);
#895=ORIENTED_EDGE('',*,*,#626,.T.);
#896=ORIENTED_EDGE('',*,*,#630,.T.);
#897=CONICAL_SURFACE('',#955,5.,0.785398163397448);
#898=CONICAL_SURFACE('',#969,4.,0.785398163397449);
#899=CONICAL_SURFACE('',#1009,2.05,0.78539816339745);
#900=CONICAL_SURFACE('',#1013,2.05000000000001,0.78539816339745);
#901=ADVANCED_FACE('',(#90),#897,.T.);
#902=ADVANCED_FACE('',(#91,#30,#31,#32,#33,#34,#35,#36,#37,#38),#54,.T.);
#903=ADVANCED_FACE('',(#92),#19,.T.);
#904=ADVANCED_FACE('',(#93),#898,.T.);
#905=ADVANCED_FACE('',(#94),#20,.T.);
#906=ADVANCED_FACE('',(#95),#55,.F.);
#907=ADVANCED_FACE('',(#96),#56,.F.);
#908=ADVANCED_FACE('',(#97),#57,.F.);
#909=ADVANCED_FACE('',(#98),#58,.F.);
#910=ADVANCED_FACE('',(#99),#59,.F.);
#911=ADVANCED_FACE('',(#100),#60,.F.);
#912=ADVANCED_FACE('',(#101,#39),#61,.T.);
#913=ADVANCED_FACE('',(#102),#62,.F.);
#914=ADVANCED_FACE('',(#103),#63,.F.);
#915=ADVANCED_FACE('',(#104),#64,.F.);
#916=ADVANCED_FACE('',(#105),#65,.F.);
#917=ADVANCED_FACE('',(#106),#66,.F.);
#918=ADVANCED_FACE('',(#107),#67,.F.);
#919=ADVANCED_FACE('',(#108,#40),#68,.T.);
#920=ADVANCED_FACE('',(#109),#69,.F.);
#921=ADVANCED_FACE('',(#110),#70,.F.);
#922=ADVANCED_FACE('',(#111),#71,.F.);
#923=ADVANCED_FACE('',(#112),#72,.F.);
#924=ADVANCED_FACE('',(#113),#73,.F.);
#925=ADVANCED_FACE('',(#114),#74,.F.);
#926=ADVANCED_FACE('',(#115,#41),#75,.T.);
#927=ADVANCED_FACE('',(#116),#76,.F.);
#928=ADVANCED_FACE('',(#117),#77,.F.);
#929=ADVANCED_FACE('',(#118),#78,.F.);
#930=ADVANCED_FACE('',(#119),#79,.F.);
#931=ADVANCED_FACE('',(#120),#80,.F.);
#932=ADVANCED_FACE('',(#121),#81,.F.);
#933=ADVANCED_FACE('',(#122,#42),#82,.T.);
#934=ADVANCED_FACE('',(#123),#21,.F.);
#935=ADVANCED_FACE('',(#124),#22,.F.);
#936=ADVANCED_FACE('',(#125),#23,.F.);
#937=ADVANCED_FACE('',(#126),#24,.F.);
#938=ADVANCED_FACE('',(#127),#899,.F.);
#939=ADVANCED_FACE('',(#128),#25,.F.);
#940=ADVANCED_FACE('',(#129),#900,.F.);
#941=ADVANCED_FACE('',(#130),#26,.F.);
#942=ADVANCED_FACE('',(#131,#43),#83,.T.);
#943=ADVANCED_FACE('',(#132,#44),#84,.T.);
#944=ADVANCED_FACE('',(#133),#27,.F.);
#945=ADVANCED_FACE('',(#134),#28,.F.);
#946=ADVANCED_FACE('',(#135),#29,.F.);
#947=ADVANCED_FACE('',(#136),#85,.T.);
#948=ADVANCED_FACE('',(#137),#86,.T.);
#949=ADVANCED_FACE('',(#138),#87,.T.);
#950=ADVANCED_FACE('',(#139),#88,.T.);
#951=ADVANCED_FACE('',(#140,#45,#46,#47,#48,#49,#50,#51,#52,#53),#89,.T.);
#952=CLOSED_SHELL('',(#901,#902,#903,#904,#905,#906,#907,#908,#909,#910,
#911,#912,#913,#914,#915,#916,#917,#918,#919,#920,#921,#922,#923,#924,#925,
#926,#927,#928,#929,#930,#931,#932,#933,#934,#935,#936,#937,#938,#939,#940,
#941,#942,#943,#944,#945,#946,#947,#948,#949,#950,#951));
#953=AXIS2_PLACEMENT_3D('',#1292,#1033,#1034);
#954=AXIS2_PLACEMENT_3D('',#1293,#1035,#1036);
#955=AXIS2_PLACEMENT_3D('',#1294,#1037,#1038);
#956=AXIS2_PLACEMENT_3D('',#1296,#1039,#1040);
#957=AXIS2_PLACEMENT_3D('',#1299,#1042,#1043);
#958=AXIS2_PLACEMENT_3D('',#1300,#1044,#1045);
#959=AXIS2_PLACEMENT_3D('',#1310,#1050,#1051);
#960=AXIS2_PLACEMENT_3D('',#1312,#1052,#1053);
#961=AXIS2_PLACEMENT_3D('',#1314,#1054,#1055);
#962=AXIS2_PLACEMENT_3D('',#1316,#1056,#1057);
#963=AXIS2_PLACEMENT_3D('',#1318,#1058,#1059);
#964=AXIS2_PLACEMENT_3D('',#1320,#1060,#1061);
#965=AXIS2_PLACEMENT_3D('',#1322,#1062,#1063);
#966=AXIS2_PLACEMENT_3D('',#1324,#1064,#1065);
#967=AXIS2_PLACEMENT_3D('',#1325,#1066,#1067);
#968=AXIS2_PLACEMENT_3D('',#1327,#1068,#1069);
#969=AXIS2_PLACEMENT_3D('',#1329,#1071,#1072);
#970=AXIS2_PLACEMENT_3D('',#1332,#1074,#1075);
#971=AXIS2_PLACEMENT_3D('',#1333,#1076,#1077);
#972=AXIS2_PLACEMENT_3D('',#1335,#1078,#1079);
#973=AXIS2_PLACEMENT_3D('',#1337,#1081,#1082);
#974=AXIS2_PLACEMENT_3D('',#1346,#1087,#1088);
#975=AXIS2_PLACEMENT_3D('',#1352,#1092,#1093);
#976=AXIS2_PLACEMENT_3D('',#1358,#1097,#1098);
#977=AXIS2_PLACEMENT_3D('',#1364,#1102,#1103);
#978=AXIS2_PLACEMENT_3D('',#1370,#1107,#1108);
#979=AXIS2_PLACEMENT_3D('',#1373,#1111,#1112);
#980=AXIS2_PLACEMENT_3D('',#1375,#1113,#1114);
#981=AXIS2_PLACEMENT_3D('',#1376,#1115,#1116);
#982=AXIS2_PLACEMENT_3D('',#1385,#1121,#1122);
#983=AXIS2_PLACEMENT_3D('',#1391,#1126,#1127);
#984=AXIS2_PLACEMENT_3D('',#1397,#1131,#1132);
#985=AXIS2_PLACEMENT_3D('',#1403,#1136,#1137);
#986=AXIS2_PLACEMENT_3D('',#1409,#1141,#1142);
#987=AXIS2_PLACEMENT_3D('',#1412,#1145,#1146);
#988=AXIS2_PLACEMENT_3D('',#1414,#1147,#1148);
#989=AXIS2_PLACEMENT_3D('',#1415,#1149,#1150);
#990=AXIS2_PLACEMENT_3D('',#1424,#1155,#1156);
#991=AXIS2_PLACEMENT_3D('',#1430,#1160,#1161);
#992=AXIS2_PLACEMENT_3D('',#1436,#1165,#1166);
#993=AXIS2_PLACEMENT_3D('',#1442,#1170,#1171);
#994=AXIS2_PLACEMENT_3D('',#1448,#1175,#1176);
#995=AXIS2_PLACEMENT_3D('',#1451,#1179,#1180);
#996=AXIS2_PLACEMENT_3D('',#1453,#1181,#1182);
#997=AXIS2_PLACEMENT_3D('',#1454,#1183,#1184);
#998=AXIS2_PLACEMENT_3D('',#1463,#1189,#1190);
#999=AXIS2_PLACEMENT_3D('',#1469,#1194,#1195);
#1000=AXIS2_PLACEMENT_3D('',#1475,#1199,#1200);
#1001=AXIS2_PLACEMENT_3D('',#1481,#1204,#1205);
#1002=AXIS2_PLACEMENT_3D('',#1487,#1209,#1210);
#1003=AXIS2_PLACEMENT_3D('',#1490,#1213,#1214);
#1004=AXIS2_PLACEMENT_3D('',#1492,#1215,#1216);
#1005=AXIS2_PLACEMENT_3D('',#1493,#1217,#1218);
#1006=AXIS2_PLACEMENT_3D('',#1495,#1220,#1221);
#1007=AXIS2_PLACEMENT_3D('',#1497,#1223,#1224);
#1008=AXIS2_PLACEMENT_3D('',#1499,#1226,#1227);
#1009=AXIS2_PLACEMENT_3D('',#1501,#1229,#1230);
#1010=AXIS2_PLACEMENT_3D('',#1504,#1232,#1233);
#1011=AXIS2_PLACEMENT_3D('',#1505,#1234,#1235);
#1012=AXIS2_PLACEMENT_3D('',#1508,#1237,#1238);
#1013=AXIS2_PLACEMENT_3D('',#1509,#1239,#1240);
#1014=AXIS2_PLACEMENT_3D('',#1512,#1242,#1243);
#1015=AXIS2_PLACEMENT_3D('',#1513,#1244,#1245);
#1016=AXIS2_PLACEMENT_3D('',#1516,#1247,#1248);
#1017=AXIS2_PLACEMENT_3D('',#1517,#1249,#1250);
#1018=AXIS2_PLACEMENT_3D('',#1519,#1251,#1252);
#1019=AXIS2_PLACEMENT_3D('',#1520,#1253,#1254);
#1020=AXIS2_PLACEMENT_3D('',#1522,#1255,#1256);
#1021=AXIS2_PLACEMENT_3D('',#1523,#1257,#1258);
#1022=AXIS2_PLACEMENT_3D('',#1526,#1260,#1261);
#1023=AXIS2_PLACEMENT_3D('',#1527,#1262,#1263);
#1024=AXIS2_PLACEMENT_3D('',#1530,#1265,#1266);
#1025=AXIS2_PLACEMENT_3D('',#1531,#1267,#1268);
#1026=AXIS2_PLACEMENT_3D('',#1534,#1270,#1271);
#1027=AXIS2_PLACEMENT_3D('',#1535,#1272,#1273);
#1028=AXIS2_PLACEMENT_3D('',#1541,#1277,#1278);
#1029=AXIS2_PLACEMENT_3D('',#1545,#1281,#1282);
#1030=AXIS2_PLACEMENT_3D('',#1549,#1285,#1286);
#1031=AXIS2_PLACEMENT_3D('',#1551,#1288,#1289);
#1032=AXIS2_PLACEMENT_3D('',#1552,#1290,#1291);
#1033=DIRECTION('axis',(0.,0.,1.));
#1034=DIRECTION('refdir',(1.,0.,0.));
#1035=DIRECTION('axis',(0.,0.,1.));
#1036=DIRECTION('refdir',(1.,0.,0.));
#1037=DIRECTION('center_axis',(0.,0.,-1.));
#1038=DIRECTION('ref_axis',(1.,0.,0.));
#1039=DIRECTION('center_axis',(0.,0.,1.));
#1040=DIRECTION('ref_axis',(1.,0.,0.));
#1041=DIRECTION('',(0.707106781186547,-8.65956056235493E-17,0.707106781186548));
#1042=DIRECTION('center_axis',(0.,0.,-1.));
#1043=DIRECTION('ref_axis',(1.,0.,0.));
#1044=DIRECTION('center_axis',(0.,0.,1.));
#1045=DIRECTION('ref_axis',(1.,0.,0.));
#1046=DIRECTION('',(0.,-1.,0.));
#1047=DIRECTION('',(1.,0.,0.));
#1048=DIRECTION('',(0.,1.,0.));
#1049=DIRECTION('',(-1.,0.,0.));
#1050=DIRECTION('center_axis',(0.,0.,1.));
#1051=DIRECTION('ref_axis',(1.,0.,0.));
#1052=DIRECTION('center_axis',(0.,0.,-1.));
#1053=DIRECTION('ref_axis',(-1.,0.,0.));
#1054=DIRECTION('center_axis',(0.,0.,-1.));
#1055=DIRECTION('ref_axis',(-1.,0.,0.));
#1056=DIRECTION('center_axis',(0.,0.,-1.));
#1057=DIRECTION('ref_axis',(-1.,0.,0.));
#1058=DIRECTION('center_axis',(0.,0.,-1.));
#1059=DIRECTION('ref_axis',(-1.,0.,0.));
#1060=DIRECTION('center_axis',(0.,0.,1.));
#1061=DIRECTION('ref_axis',(1.,0.,0.));
#1062=DIRECTION('center_axis',(0.,0.,-1.));
#1063=DIRECTION('ref_axis',(1.,0.,0.));
#1064=DIRECTION('center_axis',(0.,0.,1.));
#1065=DIRECTION('ref_axis',(1.,0.,0.));
#1066=DIRECTION('center_axis',(0.,0.,1.));
#1067=DIRECTION('ref_axis',(1.,0.,0.));
#1068=DIRECTION('center_axis',(0.,0.,1.));
#1069=DIRECTION('ref_axis',(1.,0.,0.));
#1070=DIRECTION('',(0.,0.,-1.));
#1071=DIRECTION('center_axis',(0.,0.,-1.));
#1072=DIRECTION('ref_axis',(1.,0.,0.));
#1073=DIRECTION('',(0.707106781186548,-8.65956056235494E-17,0.707106781186547));
#1074=DIRECTION('center_axis',(0.,0.,-1.));
#1075=DIRECTION('ref_axis',(1.,0.,0.));
#1076=DIRECTION('center_axis',(0.,0.,1.));
#1077=DIRECTION('ref_axis',(1.,0.,0.));
#1078=DIRECTION('center_axis',(0.,0.,1.));
#1079=DIRECTION('ref_axis',(1.,0.,0.));
#1080=DIRECTION('',(0.,0.,-1.));
#1081=DIRECTION('center_axis',(-0.866025403784439,-0.5,0.));
#1082=DIRECTION('ref_axis',(0.5,-0.866025403784439,0.));
#1083=DIRECTION('',(0.5,-0.866025403784439,0.));
#1084=DIRECTION('',(0.,0.,1.));
#1085=DIRECTION('',(0.5,-0.866025403784439,0.));
#1086=DIRECTION('',(0.,0.,1.));
#1087=DIRECTION('center_axis',(-0.866025403784439,0.5,0.));
#1088=DIRECTION('ref_axis',(-0.5,-0.866025403784439,0.));
#1089=DIRECTION('',(-0.5,-0.866025403784439,0.));
#1090=DIRECTION('',(0.,0.,1.));
#1091=DIRECTION('',(-0.5,-0.866025403784439,0.));
#1092=DIRECTION('center_axis',(3.20493781063927E-16,1.,0.));
#1093=DIRECTION('ref_axis',(-1.,3.20493781063927E-16,0.));
#1094=DIRECTION('',(-1.,3.20493781063927E-16,0.));
#1095=DIRECTION('',(0.,0.,1.));
#1096=DIRECTION('',(-1.,3.20493781063927E-16,0.));
#1097=DIRECTION('center_axis',(0.866025403784439,0.5,0.));
#1098=DIRECTION('ref_axis',(-0.5,0.866025403784439,0.));
#1099=DIRECTION('',(-0.5,0.866025403784439,0.));
#1100=DIRECTION('',(0.,0.,1.));
#1101=DIRECTION('',(-0.5,0.866025403784439,0.));
#1102=DIRECTION('center_axis',(0.866025403784439,-0.5,0.));
#1103=DIRECTION('ref_axis',(0.5,0.866025403784439,0.));
#1104=DIRECTION('',(0.5,0.866025403784439,0.));
#1105=DIRECTION('',(0.,0.,1.));
#1106=DIRECTION('',(0.5,0.866025403784439,0.));
#1107=DIRECTION('center_axis',(-6.40987562127855E-16,-1.,0.));
#1108=DIRECTION('ref_axis',(1.,-6.40987562127855E-16,0.));
#1109=DIRECTION('',(1.,-6.40987562127855E-16,0.));
#1110=DIRECTION('',(1.,-6.40987562127855E-16,0.));
#1111=DIRECTION('center_axis',(0.,0.,-1.));
#1112=DIRECTION('ref_axis',(1.,0.,0.));
#1113=DIRECTION('center_axis',(0.,0.,-1.));
#1114=DIRECTION('ref_axis',(-1.,0.,0.));
#1115=DIRECTION('center_axis',(-0.866025403784438,-0.500000000000002,0.));
#1116=DIRECTION('ref_axis',(0.500000000000002,-0.866025403784438,0.));
#1117=DIRECTION('',(0.500000000000002,-0.866025403784438,0.));
#1118=DIRECTION('',(0.,0.,1.));
#1119=DIRECTION('',(0.500000000000002,-0.866025403784438,0.));
#1120=DIRECTION('',(0.,0.,1.));
#1121=DIRECTION('center_axis',(-0.866025403784438,0.500000000000002,0.));
#1122=DIRECTION('ref_axis',(-0.500000000000002,-0.866025403784438,0.));
#1123=DIRECTION('',(-0.500000000000002,-0.866025403784438,0.));
#1124=DIRECTION('',(0.,0.,1.));
#1125=DIRECTION('',(-0.500000000000002,-0.866025403784438,0.));
#1126=DIRECTION('center_axis',(1.28197512425571E-15,1.,0.));
#1127=DIRECTION('ref_axis',(-1.,1.28197512425571E-15,0.));
#1128=DIRECTION('',(-1.,1.28197512425571E-15,0.));
#1129=DIRECTION('',(0.,0.,1.));
#1130=DIRECTION('',(-1.,1.28197512425571E-15,0.));
#1131=DIRECTION('center_axis',(0.866025403784437,0.500000000000002,0.));
#1132=DIRECTION('ref_axis',(-0.500000000000002,0.866025403784437,0.));
#1133=DIRECTION('',(-0.500000000000002,0.866025403784437,0.));
#1134=DIRECTION('',(0.,0.,1.));
#1135=DIRECTION('',(-0.500000000000002,0.866025403784437,0.));
#1136=DIRECTION('center_axis',(0.866025403784438,-0.500000000000002,0.));
#1137=DIRECTION('ref_axis',(0.500000000000002,0.866025403784438,0.));
#1138=DIRECTION('',(0.500000000000002,0.866025403784438,0.));
#1139=DIRECTION('',(0.,0.,1.));
#1140=DIRECTION('',(0.500000000000002,0.866025403784438,0.));
#1141=DIRECTION('center_axis',(-6.40987562127855E-16,-1.,0.));
#1142=DIRECTION('ref_axis',(1.,-6.40987562127855E-16,0.));
#1143=DIRECTION('',(1.,-6.40987562127855E-16,0.));
#1144=DIRECTION('',(1.,-6.40987562127855E-16,0.));
#1145=DIRECTION('center_axis',(0.,0.,-1.));
#1146=DIRECTION('ref_axis',(1.,0.,0.));
#1147=DIRECTION('center_axis',(0.,0.,-1.));
#1148=DIRECTION('ref_axis',(-1.,0.,0.));
#1149=DIRECTION('center_axis',(-0.866025403784439,-0.5,0.));
#1150=DIRECTION('ref_axis',(0.5,-0.866025403784439,0.));
#1151=DIRECTION('',(0.5,-0.866025403784439,0.));
#1152=DIRECTION('',(0.,0.,1.));
#1153=DIRECTION('',(0.5,-0.866025403784439,0.));
#1154=DIRECTION('',(0.,0.,1.));
#1155=DIRECTION('center_axis',(-0.866025403784439,0.499999999999999,0.));
#1156=DIRECTION('ref_axis',(-0.499999999999999,-0.866025403784439,0.));
#1157=DIRECTION('',(-0.499999999999999,-0.866025403784439,0.));
#1158=DIRECTION('',(0.,0.,1.));
#1159=DIRECTION('',(-0.499999999999999,-0.866025403784439,0.));
#1160=DIRECTION('center_axis',(-3.20493781063927E-16,1.,0.));
#1161=DIRECTION('ref_axis',(-1.,-3.20493781063927E-16,0.));
#1162=DIRECTION('',(-1.,-3.20493781063927E-16,0.));
#1163=DIRECTION('',(0.,0.,1.));
#1164=DIRECTION('',(-1.,-3.20493781063927E-16,0.));
#1165=DIRECTION('center_axis',(0.866025403784439,0.5,0.));
#1166=DIRECTION('ref_axis',(-0.5,0.866025403784439,0.));
#1167=DIRECTION('',(-0.5,0.866025403784439,0.));
#1168=DIRECTION('',(0.,0.,1.));
#1169=DIRECTION('',(-0.5,0.866025403784439,0.));
#1170=DIRECTION('center_axis',(0.866025403784439,-0.499999999999999,0.));
#1171=DIRECTION('ref_axis',(0.499999999999999,0.866025403784439,0.));
#1172=DIRECTION('',(0.499999999999999,0.866025403784439,0.));
#1173=DIRECTION('',(0.,0.,1.));
#1174=DIRECTION('',(0.499999999999999,0.866025403784439,0.));
#1175=DIRECTION('center_axis',(6.40987562127854E-16,-1.,0.));
#1176=DIRECTION('ref_axis',(1.,6.40987562127854E-16,0.));
#1177=DIRECTION('',(1.,6.40987562127854E-16,0.));
#1178=DIRECTION('',(1.,6.40987562127854E-16,0.));
#1179=DIRECTION('center_axis',(0.,0.,-1.));
#1180=DIRECTION('ref_axis',(1.,0.,0.));
#1181=DIRECTION('center_axis',(0.,0.,-1.));
#1182=DIRECTION('ref_axis',(-1.,0.,0.));
#1183=DIRECTION('center_axis',(-0.866025393850331,-0.50000001720638,0.));
#1184=DIRECTION('ref_axis',(0.50000001720638,-0.866025393850331,0.));
#1185=DIRECTION('',(0.50000001720638,-0.866025393850331,0.));
#1186=DIRECTION('',(0.,0.,1.));
#1187=DIRECTION('',(0.50000001720638,-0.866025393850331,0.));
#1188=DIRECTION('',(0.,0.,1.));
#1189=DIRECTION('center_axis',(-0.866025413718546,0.499999982793621,0.));
#1190=DIRECTION('ref_axis',(-0.499999982793621,-0.866025413718546,0.));
#1191=DIRECTION('',(-0.499999982793621,-0.866025413718546,0.));
#1192=DIRECTION('',(0.,0.,1.));
#1193=DIRECTION('',(-0.499999982793621,-0.866025413718546,0.));
#1194=DIRECTION('center_axis',(-1.98682160784127E-8,1.,0.));
#1195=DIRECTION('ref_axis',(-1.,-1.98682160784127E-8,0.));
#1196=DIRECTION('',(-1.,-1.98682160784127E-8,0.));
#1197=DIRECTION('',(0.,0.,1.));
#1198=DIRECTION('',(-1.,-1.98682160784127E-8,0.));
#1199=DIRECTION('center_axis',(0.866025393850331,0.500000017206379,0.));
#1200=DIRECTION('ref_axis',(-0.500000017206379,0.866025393850331,0.));
#1201=DIRECTION('',(-0.500000017206379,0.866025393850331,0.));
#1202=DIRECTION('',(0.,0.,1.));
#1203=DIRECTION('',(-0.500000017206379,0.866025393850331,0.));
#1204=DIRECTION('center_axis',(0.8660254186856,-0.499999974190431,0.));
#1205=DIRECTION('ref_axis',(0.499999974190431,0.8660254186856,0.));
#1206=DIRECTION('',(0.499999974190431,0.8660254186856,0.));
#1207=DIRECTION('',(0.,0.,1.));
#1208=DIRECTION('',(0.499999974190431,0.8660254186856,0.));
#1209=DIRECTION('center_axis',(0.,-1.,0.));
#1210=DIRECTION('ref_axis',(1.,0.,0.));
#1211=DIRECTION('',(1.,0.,0.));
#1212=DIRECTION('',(1.,0.,0.));
#1213=DIRECTION('center_axis',(0.,0.,-1.));
#1214=DIRECTION('ref_axis',(1.,0.,0.));
#1215=DIRECTION('center_axis',(0.,0.,-1.));
#1216=DIRECTION('ref_axis',(-1.,0.,0.));
#1217=DIRECTION('center_axis',(0.,0.,-1.));
#1218=DIRECTION('ref_axis',(-1.,0.,0.));
#1219=DIRECTION('',(0.,0.,-1.));
#1220=DIRECTION('center_axis',(0.,0.,-1.));
#1221=DIRECTION('ref_axis',(-1.,0.,0.));
#1222=DIRECTION('',(0.,0.,-1.));
#1223=DIRECTION('center_axis',(0.,0.,-1.));
#1224=DIRECTION('ref_axis',(-1.,0.,0.));
#1225=DIRECTION('',(0.,0.,-1.));
#1226=DIRECTION('center_axis',(0.,0.,-1.));
#1227=DIRECTION('ref_axis',(-1.,0.,0.));
#1228=DIRECTION('',(0.,0.,-1.));
#1229=DIRECTION('center_axis',(0.,0.,1.));
#1230=DIRECTION('ref_axis',(1.,0.,0.));
#1231=DIRECTION('',(0.707106781186548,8.65956056235494E-17,-0.707106781186547));
#1232=DIRECTION('center_axis',(0.,0.,-1.));
#1233=DIRECTION('ref_axis',(1.,0.,0.));
#1234=DIRECTION('center_axis',(0.,0.,-1.));
#1235=DIRECTION('ref_axis',(1.,0.,0.));
#1236=DIRECTION('',(0.,0.,-1.));
#1237=DIRECTION('center_axis',(0.,0.,1.));
#1238=DIRECTION('ref_axis',(1.,0.,0.));
#1239=DIRECTION('center_axis',(0.,0.,1.));
#1240=DIRECTION('ref_axis',(1.,0.,0.));
#1241=DIRECTION('',(0.707106781186548,8.65956056235494E-17,-0.707106781186547));
#1242=DIRECTION('center_axis',(0.,0.,-1.));
#1243=DIRECTION('ref_axis',(1.,0.,0.));
#1244=DIRECTION('center_axis',(0.,0.,-1.));
#1245=DIRECTION('ref_axis',(1.,0.,0.));
#1246=DIRECTION('',(0.,0.,-1.));
#1247=DIRECTION('center_axis',(0.,0.,1.));
#1248=DIRECTION('ref_axis',(1.,0.,0.));
#1249=DIRECTION('center_axis',(0.,0.,1.));
#1250=DIRECTION('ref_axis',(1.,0.,0.));
#1251=DIRECTION('center_axis',(0.,0.,-1.));
#1252=DIRECTION('ref_axis',(1.,0.,0.));
#1253=DIRECTION('center_axis',(0.,0.,1.));
#1254=DIRECTION('ref_axis',(1.,0.,0.));
#1255=DIRECTION('center_axis',(0.,0.,-1.));
#1256=DIRECTION('ref_axis',(1.,0.,0.));
#1257=DIRECTION('center_axis',(0.,0.,-1.));
#1258=DIRECTION('ref_axis',(1.,0.,0.));
#1259=DIRECTION('',(0.,0.,-1.));
#1260=DIRECTION('center_axis',(0.,0.,1.));
#1261=DIRECTION('ref_axis',(1.,0.,0.));
#1262=DIRECTION('center_axis',(0.,0.,-1.));
#1263=DIRECTION('ref_axis',(1.,0.,0.));
#1264=DIRECTION('',(0.,0.,-1.));
#1265=DIRECTION('center_axis',(0.,0.,1.));
#1266=DIRECTION('ref_axis',(1.,0.,0.));
#1267=DIRECTION('center_axis',(0.,0.,-1.));
#1268=DIRECTION('ref_axis',(1.,0.,0.));
#1269=DIRECTION('',(0.,0.,-1.));
#1270=DIRECTION('center_axis',(0.,0.,1.));
#1271=DIRECTION('ref_axis',(1.,0.,0.));
#1272=DIRECTION('center_axis',(0.,-1.,0.));
#1273=DIRECTION('ref_axis',(-1.,0.,0.));
#1274=DIRECTION('',(0.,0.,-1.));
#1275=DIRECTION('',(-1.,0.,0.));
#1276=DIRECTION('',(0.,0.,-1.));
#1277=DIRECTION('center_axis',(1.,0.,0.));
#1278=DIRECTION('ref_axis',(0.,-1.,0.));
#1279=DIRECTION('',(0.,-1.,0.));
#1280=DIRECTION('',(0.,0.,-1.));
#1281=DIRECTION('center_axis',(0.,1.,0.));
#1282=DIRECTION('ref_axis',(1.,0.,0.));
#1283=DIRECTION('',(1.,0.,0.));
#1284=DIRECTION('',(0.,0.,-1.));
#1285=DIRECTION('center_axis',(-1.,0.,0.));
#1286=DIRECTION('ref_axis',(0.,1.,0.));
#1287=DIRECTION('',(0.,1.,0.));
#1288=DIRECTION('center_axis',(0.,0.,-1.));
#1289=DIRECTION('ref_axis',(-1.,0.,0.));
#1290=DIRECTION('',(-5.46184951915631E-21,1.11022371260878E-16,1.));
#1291=DIRECTION('',(1.,6.93889390390723E-18,1.38777878078145E-17));
#1292=CARTESIAN_POINT('',(0.,0.,0.));
#1293=CARTESIAN_POINT('',(0.,0.,0.));
#1294=CARTESIAN_POINT('Origin',(32.1010002086163,8.49999986588956,2.));
#1295=CARTESIAN_POINT('',(25.1010002086163,8.49999986588956,0.));
#1296=CARTESIAN_POINT('Origin',(32.1010002086163,8.49999986588956,0.));
#1297=CARTESIAN_POINT('',(29.1010002086163,8.49999986588956,4.));
#1298=CARTESIAN_POINT('',(27.1010002086163,8.49999986588956,2.));
#1299=CARTESIAN_POINT('Origin',(32.1010002086163,8.49999986588956,4.));
#1300=CARTESIAN_POINT('Origin',(46.5000002086163,8.49999986588955,0.));
#1301=CARTESIAN_POINT('',(14.0000002086163,25.9999998658895,0.));
#1302=CARTESIAN_POINT('',(14.0000002086163,-9.00000013411045,0.));
#1303=CARTESIAN_POINT('',(14.0000002086163,25.9999998658895,0.));
#1304=CARTESIAN_POINT('',(79.0000002086163,-9.00000013411045,0.));
#1305=CARTESIAN_POINT('',(14.0000002086163,-9.00000013411045,0.));
#1306=CARTESIAN_POINT('',(79.0000002086163,25.9999998658895,0.));
#1307=CARTESIAN_POINT('',(79.0000002086163,-9.00000013411045,0.));
#1308=CARTESIAN_POINT('',(79.0000002086163,25.9999998658895,0.));
#1309=CARTESIAN_POINT('',(45.2000002086163,8.49999986588956,0.));
#1310=CARTESIAN_POINT('Origin',(50.2000002086163,8.49999986588956,0.));
#1311=CARTESIAN_POINT('',(19.6500002086163,-5.00000013411045,0.));
#1312=CARTESIAN_POINT('Origin',(18.0000002086163,-5.00000013411045,0.));
#1313=CARTESIAN_POINT('',(76.6500011771917,22.0000003874302,0.));
#1314=CARTESIAN_POINT('Origin',(75.0000011771917,22.0000003874302,0.));
#1315=CARTESIAN_POINT('',(19.6500002086163,22.0000003874302,0.));
#1316=CARTESIAN_POINT('Origin',(18.0000002086163,22.0000003874302,0.));
#1317=CARTESIAN_POINT('',(76.6500011771917,-5.00000013411045,0.));
#1318=CARTESIAN_POINT('Origin',(75.0000011771917,-5.00000013411045,0.));
#1319=CARTESIAN_POINT('',(66.2000002086162,1.59999986588955,0.));
#1320=CARTESIAN_POINT('Origin',(69.0000002086163,1.59999986588955,0.));
#1321=CARTESIAN_POINT('',(65.4000002086162,8.49999986588955,0.));
#1322=CARTESIAN_POINT('Origin',(69.0000002086163,8.49999986588955,0.));
#1323=CARTESIAN_POINT('',(66.2000002086163,15.3999998658896,0.));
#1324=CARTESIAN_POINT('Origin',(69.0000002086163,15.3999998658896,0.));
#1325=CARTESIAN_POINT('Origin',(32.1010002086163,8.49999986588956,0.));
#1326=CARTESIAN_POINT('',(29.1010002086163,8.49999986588956,6.));
#1327=CARTESIAN_POINT('Origin',(32.1010002086163,8.49999986588956,6.));
#1328=CARTESIAN_POINT('',(29.1010002086163,8.49999986588956,0.));
#1329=CARTESIAN_POINT('Origin',(50.2000002086163,8.49999986588956,1.));
#1330=CARTESIAN_POINT('',(47.2000002086163,8.49999986588956,2.));
#1331=CARTESIAN_POINT('',(46.2000002086163,8.49999986588956,1.));
#1332=CARTESIAN_POINT('Origin',(50.2000002086163,8.49999986588956,2.));
#1333=CARTESIAN_POINT('Origin',(50.2000002086163,8.49999986588956,0.));
#1334=CARTESIAN_POINT('',(47.2000002086163,8.49999986588956,3.));
#1335=CARTESIAN_POINT('Origin',(50.2000002086163,8.49999986588956,3.));
#1336=CARTESIAN_POINT('',(47.2000002086163,8.49999986588956,0.));
#1337=CARTESIAN_POINT('Origin',(71.535899562054,-5.00000013411045,-4.));
#1338=CARTESIAN_POINT('',(71.535899562054,-5.00000013411045,-4.));
#1339=CARTESIAN_POINT('',(73.2679503696229,-8.00000013411045,-4.));
#1340=CARTESIAN_POINT('',(65.4835764051018,5.48293107755642,-4.));
#1341=CARTESIAN_POINT('',(71.535899562054,-5.00000013411045,-1.4));
#1342=CARTESIAN_POINT('',(71.535899562054,-5.00000013411045,-4.));
#1343=CARTESIAN_POINT('',(73.2679503696229,-8.00000013411045,-1.4));
#1344=CARTESIAN_POINT('',(73.2679503696229,-8.00000013411045,-1.4));
#1345=CARTESIAN_POINT('',(73.2679503696229,-8.00000013411045,-4.));
#1346=CARTESIAN_POINT('Origin',(73.2679503696229,-2.00000013411045,-4.));
#1347=CARTESIAN_POINT('',(73.2679503696229,-2.00000013411045,-4.));
#1348=CARTESIAN_POINT('',(72.1952732844312,-3.85793134577732,-4.));
#1349=CARTESIAN_POINT('',(73.2679503696229,-2.00000013411045,-1.4));
#1350=CARTESIAN_POINT('',(73.2679503696229,-2.00000013411045,-4.));
#1351=CARTESIAN_POINT('',(71.535899562054,-5.00000013411045,-1.4));
#1352=CARTESIAN_POINT('Origin',(76.7320519847606,-2.00000013411045,-4.));
#1353=CARTESIAN_POINT('',(76.7320519847606,-2.00000013411045,-4.));
#1354=CARTESIAN_POINT('',(61.6160260966884,-2.00000013411045,-4.));
#1355=CARTESIAN_POINT('',(76.7320519847606,-2.00000013411045,-1.4));
#1356=CARTESIAN_POINT('',(76.7320519847606,-2.00000013411045,-4.));
#1357=CARTESIAN_POINT('',(73.2679503696229,-2.00000013411045,-1.4));
#1358=CARTESIAN_POINT('Origin',(78.4641027923295,-5.00000013411045,-4.));
#1359=CARTESIAN_POINT('',(78.4641027923295,-5.00000013411045,-4.));
#1360=CARTESIAN_POINT('',(71.5457542315929,6.98293107755642,-4.));
#1361=CARTESIAN_POINT('',(78.4641027923295,-5.00000013411045,-1.4));
#1362=CARTESIAN_POINT('',(78.4641027923295,-5.00000013411045,-4.));
#1363=CARTESIAN_POINT('',(76.7320519847606,-2.00000013411045,-1.4));
#1364=CARTESIAN_POINT('Origin',(76.7320519847606,-8.00000013411045,-4.));
#1365=CARTESIAN_POINT('',(76.7320519847606,-8.00000013411045,-4.));
#1366=CARTESIAN_POINT('',(76.5254003033534,-8.35793134577732,-4.));
#1367=CARTESIAN_POINT('',(76.7320519847606,-8.00000013411045,-1.4));
#1368=CARTESIAN_POINT('',(76.7320519847606,-8.00000013411045,-4.));
#1369=CARTESIAN_POINT('',(78.4641027923295,-5.00000013411045,-1.4));
#1370=CARTESIAN_POINT('Origin',(73.2679503696229,-8.00000013411045,-4.));
#1371=CARTESIAN_POINT('',(59.8839752891195,-8.00000013411044,-4.));
#1372=CARTESIAN_POINT('',(76.7320519847606,-8.00000013411045,-1.4));
#1373=CARTESIAN_POINT('Origin',(75.0000011771917,-5.00000013411045,-1.4));
#1374=CARTESIAN_POINT('',(76.6500011771917,-5.00000013411045,-1.4));
#1375=CARTESIAN_POINT('Origin',(75.0000011771917,-5.00000013411045,-1.4));
#1376=CARTESIAN_POINT('Origin',(71.535899562054,22.0000003874302,-4.));
#1377=CARTESIAN_POINT('',(71.535899562054,22.0000003874302,-4.));
#1378=CARTESIAN_POINT('',(73.2679503696229,19.0000003874302,-4.));
#1379=CARTESIAN_POINT('',(71.3292479935636,22.3579314035193,-4.));
#1380=CARTESIAN_POINT('',(71.535899562054,22.0000003874302,-1.4));
#1381=CARTESIAN_POINT('',(71.535899562054,22.0000003874302,-4.));
#1382=CARTESIAN_POINT('',(73.2679503696229,19.0000003874302,-1.4));
#1383=CARTESIAN_POINT('',(73.2679503696229,19.0000003874302,-1.4));
#1384=CARTESIAN_POINT('',(73.2679503696229,19.0000003874302,-4.));
#1385=CARTESIAN_POINT('Origin',(73.2679503696229,25.0000003874302,-4.));
#1386=CARTESIAN_POINT('',(73.2679503696229,25.0000003874302,-4.));
#1387=CARTESIAN_POINT('',(66.3496016959693,13.0170689801856,-4.));
#1388=CARTESIAN_POINT('',(73.2679503696229,25.0000003874302,-1.4));
#1389=CARTESIAN_POINT('',(73.2679503696229,25.0000003874302,-4.));
#1390=CARTESIAN_POINT('',(71.535899562054,22.0000003874302,-1.4));
#1391=CARTESIAN_POINT('Origin',(76.7320519847606,25.0000003874302,-4.));
#1392=CARTESIAN_POINT('',(76.7320519847606,25.0000003874302,-4.));
#1393=CARTESIAN_POINT('',(61.6160260966884,25.0000003874302,-4.));
#1394=CARTESIAN_POINT('',(76.7320519847606,25.0000003874302,-1.4));
#1395=CARTESIAN_POINT('',(76.7320519847606,25.0000003874302,-4.));
#1396=CARTESIAN_POINT('',(73.2679503696229,25.0000003874302,-1.4));
#1397=CARTESIAN_POINT('Origin',(78.4641027923295,22.0000003874302,-4.));
#1398=CARTESIAN_POINT('',(78.4641027923295,22.0000003874302,-4.));
#1399=CARTESIAN_POINT('',(77.3914258200546,23.8579314035194,-4.));
#1400=CARTESIAN_POINT('',(78.4641027923295,22.0000003874302,-1.4));
#1401=CARTESIAN_POINT('',(78.4641027923295,22.0000003874302,-4.));
#1402=CARTESIAN_POINT('',(76.7320519847606,25.0000003874302,-1.4));
#1403=CARTESIAN_POINT('Origin',(76.7320519847606,19.0000003874302,-4.));
#1404=CARTESIAN_POINT('',(76.7320519847606,19.0000003874302,-4.));
#1405=CARTESIAN_POINT('',(70.6797287148915,8.51706898018558,-4.));
#1406=CARTESIAN_POINT('',(76.7320519847606,19.0000003874302,-1.4));
#1407=CARTESIAN_POINT('',(76.7320519847606,19.0000003874302,-4.));
#1408=CARTESIAN_POINT('',(78.4641027923295,22.0000003874302,-1.4));
#1409=CARTESIAN_POINT('Origin',(73.2679503696229,19.0000003874302,-4.));
#1410=CARTESIAN_POINT('',(59.8839752891195,19.0000003874302,-4.));
#1411=CARTESIAN_POINT('',(76.7320519847606,19.0000003874302,-1.4));
#1412=CARTESIAN_POINT('Origin',(75.0000011771917,22.0000003874302,-1.4));
#1413=CARTESIAN_POINT('',(76.6500011771917,22.0000003874302,-1.4));
#1414=CARTESIAN_POINT('Origin',(75.0000011771917,22.0000003874302,-1.4));
#1415=CARTESIAN_POINT('Origin',(14.5358985934785,-5.00000013411045,-4.));
#1416=CARTESIAN_POINT('',(14.5358985934785,-5.00000013411045,-4.));
#1417=CARTESIAN_POINT('',(16.2679494010474,-8.00000013411045,-4.));
#1418=CARTESIAN_POINT('',(15.6085755575982,-6.85793113607458,-4.));
#1419=CARTESIAN_POINT('',(14.5358985934785,-5.00000013411045,-1.4));
#1420=CARTESIAN_POINT('',(14.5358985934785,-5.00000013411045,-4.));
#1421=CARTESIAN_POINT('',(16.2679494010474,-8.00000013411045,-1.4));
#1422=CARTESIAN_POINT('',(16.2679494010474,-8.00000013411045,-1.4));
#1423=CARTESIAN_POINT('',(16.2679494010474,-8.00000013411045,-4.));
#1424=CARTESIAN_POINT('Origin',(16.2679494010474,-2.00000013411045,-4.));
#1425=CARTESIAN_POINT('',(16.2679494010474,-2.00000013411045,-4.));
#1426=CARTESIAN_POINT('',(22.3202724369276,8.48293086785367,-4.));
#1427=CARTESIAN_POINT('',(16.2679494010474,-2.00000013411045,-1.4));
#1428=CARTESIAN_POINT('',(16.2679494010474,-2.00000013411045,-4.));
#1429=CARTESIAN_POINT('',(14.5358985934785,-5.00000013411045,-1.4));
#1430=CARTESIAN_POINT('Origin',(19.7320510161851,-2.00000013411045,-4.));
#1431=CARTESIAN_POINT('',(19.7320510161851,-2.00000013411045,-4.));
#1432=CARTESIAN_POINT('',(33.1160256124007,-2.00000013411044,-4.));
#1433=CARTESIAN_POINT('',(19.7320510161851,-2.00000013411045,-1.4));
#1434=CARTESIAN_POINT('',(19.7320510161851,-2.00000013411045,-4.));
#1435=CARTESIAN_POINT('',(16.2679494010474,-2.00000013411045,-1.4));
#1436=CARTESIAN_POINT('Origin',(21.464101823754,-5.00000013411045,-4.));
#1437=CARTESIAN_POINT('',(21.464101823754,-5.00000013411045,-4.));
#1438=CARTESIAN_POINT('',(21.6707533840893,-5.35793113607458,-4.));
#1439=CARTESIAN_POINT('',(21.464101823754,-5.00000013411045,-1.4));
#1440=CARTESIAN_POINT('',(21.464101823754,-5.00000013411045,-4.));
#1441=CARTESIAN_POINT('',(19.7320510161851,-2.00000013411045,-1.4));
#1442=CARTESIAN_POINT('Origin',(19.7320510161851,-8.00000013411045,-4.));
#1443=CARTESIAN_POINT('',(19.7320510161851,-8.00000013411045,-4.));
#1444=CARTESIAN_POINT('',(26.6503994558498,3.98293086785368,-4.));
#1445=CARTESIAN_POINT('',(19.7320510161851,-8.00000013411045,-1.4));
#1446=CARTESIAN_POINT('',(19.7320510161851,-8.00000013411045,-4.));
#1447=CARTESIAN_POINT('',(21.464101823754,-5.00000013411045,-1.4));
#1448=CARTESIAN_POINT('Origin',(16.2679494010474,-8.00000013411045,-4.));
#1449=CARTESIAN_POINT('',(31.3839748048318,-8.00000013411044,-4.));
#1450=CARTESIAN_POINT('',(19.7320510161851,-8.00000013411045,-1.4));
#1451=CARTESIAN_POINT('Origin',(18.0000002086163,-5.00000013411045,-1.4));
#1452=CARTESIAN_POINT('',(19.6500002086163,-5.00000013411045,-1.4));
#1453=CARTESIAN_POINT('Origin',(18.0000002086163,-5.00000013411045,-1.4));
#1454=CARTESIAN_POINT('Origin',(14.5358986332149,22.0000003186047,-4.));
#1455=CARTESIAN_POINT('',(14.5358986332149,22.0000003186047,-4.));
#1456=CARTESIAN_POINT('',(16.2679494805202,19.0000003874302,-4.));
#1457=CARTESIAN_POINT('',(21.4542475079767,10.0170691128512,-4.));
#1458=CARTESIAN_POINT('',(14.5358986332149,22.0000003186047,-1.4));
#1459=CARTESIAN_POINT('',(14.5358986332149,22.0000003186047,-4.));
#1460=CARTESIAN_POINT('',(16.2679494805202,19.0000003874302,-1.4));
#1461=CARTESIAN_POINT('',(16.2679494805202,19.0000003874302,-1.4));
#1462=CARTESIAN_POINT('',(16.2679494805202,19.0000003874302,-4.));
#1463=CARTESIAN_POINT('Origin',(16.267949361311,25.0000003186047,-4.));
#1464=CARTESIAN_POINT('',(16.267949361311,25.0000003186047,-4.));
#1465=CARTESIAN_POINT('',(16.4746006504619,25.357930867287,-4.));
#1466=CARTESIAN_POINT('',(16.267949361311,25.0000003186047,-1.4));
#1467=CARTESIAN_POINT('',(16.267949361311,25.0000003186047,-4.));
#1468=CARTESIAN_POINT('',(14.5358986332149,22.0000003186047,-1.4));
#1469=CARTESIAN_POINT('Origin',(19.7320509367123,25.0000003874302,-4.));
#1470=CARTESIAN_POINT('',(19.7320509367123,25.0000003874302,-4.));
#1471=CARTESIAN_POINT('',(33.1160254087515,25.0000006533459,-4.));
#1472=CARTESIAN_POINT('',(19.7320509367123,25.0000003874302,-1.4));
#1473=CARTESIAN_POINT('',(19.7320509367123,25.0000003874302,-4.));
#1474=CARTESIAN_POINT('',(16.267949361311,25.0000003186047,-1.4));
#1475=CARTESIAN_POINT('Origin',(21.4641017840176,22.0000004562557,-4.));
#1476=CARTESIAN_POINT('',(21.4641017840176,22.0000004562557,-4.));
#1477=CARTESIAN_POINT('',(27.5164252351267,11.5170692160895,-4.));
#1478=CARTESIAN_POINT('',(21.4641017840176,22.0000004562557,-1.4));
#1479=CARTESIAN_POINT('',(21.4641017840176,22.0000004562557,-4.));
#1480=CARTESIAN_POINT('',(19.7320509367123,25.0000003874302,-1.4));
#1481=CARTESIAN_POINT('Origin',(19.7320510559216,19.0000003874302,-4.));
#1482=CARTESIAN_POINT('',(19.7320510559216,19.0000003874302,-4.));
#1483=CARTESIAN_POINT('',(20.8047276349539,20.8579308502764,-4.));
#1484=CARTESIAN_POINT('',(19.7320510559216,19.0000003874302,-1.4));
#1485=CARTESIAN_POINT('',(19.7320510559216,19.0000003874302,-4.));
#1486=CARTESIAN_POINT('',(21.4641017840176,22.0000004562557,-1.4));
#1487=CARTESIAN_POINT('Origin',(16.2679494805202,19.0000003874302,-4.));
#1488=CARTESIAN_POINT('',(31.3839748445682,19.0000003874302,-4.));
#1489=CARTESIAN_POINT('',(19.7320510559216,19.0000003874302,-1.4));
#1490=CARTESIAN_POINT('Origin',(18.0000002086163,22.0000003874302,-1.4));
#1491=CARTESIAN_POINT('',(19.6500002086163,22.0000003874302,-1.4));
#1492=CARTESIAN_POINT('Origin',(18.0000002086163,22.0000003874302,-1.4));
#1493=CARTESIAN_POINT('Origin',(18.0000002086163,-5.00000013411045,26.1));
#1494=CARTESIAN_POINT('',(19.6500002086163,-5.00000013411045,26.1));
#1495=CARTESIAN_POINT('Origin',(75.0000011771917,22.0000003874302,26.1));
#1496=CARTESIAN_POINT('',(76.6500011771917,22.0000003874302,26.1));
#1497=CARTESIAN_POINT('Origin',(18.0000002086163,22.0000003874302,26.1));
#1498=CARTESIAN_POINT('',(19.6500002086163,22.0000003874302,26.1));
#1499=CARTESIAN_POINT('Origin',(75.0000011771917,-5.00000013411045,26.1));
#1500=CARTESIAN_POINT('',(76.6500011771917,-5.00000013411045,26.1));
#1501=CARTESIAN_POINT('Origin',(69.0000002086163,15.3999998658896,-0.75));
#1502=CARTESIAN_POINT('',(67.7000002086163,15.3999998658896,-1.5));
#1503=CARTESIAN_POINT('',(66.9500002086163,15.3999998658896,-0.75));
#1504=CARTESIAN_POINT('Origin',(69.0000002086163,15.3999998658896,-1.5));
#1505=CARTESIAN_POINT('Origin',(69.0000002086163,15.3999998658896,0.));
#1506=CARTESIAN_POINT('',(67.7000002086163,15.3999998658896,-4.));
#1507=CARTESIAN_POINT('',(67.7000002086163,15.3999998658896,0.));
#1508=CARTESIAN_POINT('Origin',(69.0000002086163,15.3999998658896,-4.));
#1509=CARTESIAN_POINT('Origin',(69.0000002086163,1.59999986588955,-0.75));
#1510=CARTESIAN_POINT('',(67.7000002086162,1.59999986588955,-1.5));
#1511=CARTESIAN_POINT('',(66.9500002086162,1.59999986588955,-0.75));
#1512=CARTESIAN_POINT('Origin',(69.0000002086163,1.59999986588955,-1.5));
#1513=CARTESIAN_POINT('Origin',(69.0000002086163,1.59999986588955,0.));
#1514=CARTESIAN_POINT('',(67.7000002086162,1.59999986588955,-4.));
#1515=CARTESIAN_POINT('',(67.7000002086162,1.59999986588955,0.));
#1516=CARTESIAN_POINT('Origin',(69.0000002086163,1.59999986588955,-4.));
#1517=CARTESIAN_POINT('Origin',(32.1010002086163,8.49999986588956,6.));
#1518=CARTESIAN_POINT('',(30.4510002086163,8.49999986588956,6.));
#1519=CARTESIAN_POINT('Origin',(32.1010002086163,8.49999986588956,6.));
#1520=CARTESIAN_POINT('Origin',(50.2000002086163,8.49999986588956,3.));
#1521=CARTESIAN_POINT('',(48.5500002086163,8.49999986588956,3.));
#1522=CARTESIAN_POINT('Origin',(50.2000002086163,8.49999986588956,3.));
#1523=CARTESIAN_POINT('Origin',(32.1010002086163,8.49999986588956,0.));
#1524=CARTESIAN_POINT('',(30.4510002086163,8.49999986588956,-4.));
#1525=CARTESIAN_POINT('',(30.4510002086163,8.49999986588956,0.));
#1526=CARTESIAN_POINT('Origin',(32.1010002086163,8.49999986588956,-4.));
#1527=CARTESIAN_POINT('Origin',(50.2000002086163,8.49999986588956,0.));
#1528=CARTESIAN_POINT('',(48.5500002086163,8.49999986588956,-4.));
#1529=CARTESIAN_POINT('',(48.5500002086163,8.49999986588956,0.));
#1530=CARTESIAN_POINT('Origin',(50.2000002086163,8.49999986588956,-4.));
#1531=CARTESIAN_POINT('Origin',(69.0000002086163,8.49999986588955,0.));
#1532=CARTESIAN_POINT('',(65.4000002086162,8.49999986588955,-4.));
#1533=CARTESIAN_POINT('',(65.4000002086162,8.49999986588955,0.));
#1534=CARTESIAN_POINT('Origin',(69.0000002086163,8.49999986588955,-4.));
#1535=CARTESIAN_POINT('Origin',(79.0000002086163,-9.00000013411045,0.));
#1536=CARTESIAN_POINT('',(14.0000002086163,-9.00000013411045,-4.));
#1537=CARTESIAN_POINT('',(14.0000002086163,-9.00000013411045,0.));
#1538=CARTESIAN_POINT('',(79.0000002086163,-9.00000013411045,-4.));
#1539=CARTESIAN_POINT('',(14.0000002086163,-9.00000013411045,-4.));
#1540=CARTESIAN_POINT('',(79.0000002086163,-9.00000013411045,0.));
#1541=CARTESIAN_POINT('Origin',(79.0000002086163,25.9999998658895,0.));
#1542=CARTESIAN_POINT('',(79.0000002086163,25.9999998658895,-4.));
#1543=CARTESIAN_POINT('',(79.0000002086163,-9.00000013411045,-4.));
#1544=CARTESIAN_POINT('',(79.0000002086163,25.9999998658895,0.));
#1545=CARTESIAN_POINT('Origin',(14.0000002086163,25.9999998658895,0.));
#1546=CARTESIAN_POINT('',(14.0000002086163,25.9999998658895,-4.));
#1547=CARTESIAN_POINT('',(79.0000002086163,25.9999998658895,-4.));
#1548=CARTESIAN_POINT('',(14.0000002086163,25.9999998658895,0.));
#1549=CARTESIAN_POINT('Origin',(14.0000002086163,-9.00000013411045,0.));
#1550=CARTESIAN_POINT('',(14.0000002086163,25.9999998658895,-4.));
#1551=CARTESIAN_POINT('Origin',(46.5000002086163,8.49999986588955,-4.));
#1552=CARTESIAN_POINT('',(-33.0981952215708,0.00610012264083614,-2.54700590519572));
#1553=UNCERTAINTY_MEASURE_WITH_UNIT(LENGTH_MEASURE(0.01),#1559,
'DISTANCE_ACCURACY_VALUE',
'Maximum model space distance between geometric entities at asserted c
onnectivities');
#1554=UNCERTAINTY_MEASURE_WITH_UNIT(LENGTH_MEASURE(0.01),#1559,
'DISTANCE_ACCURACY_VALUE',
'Maximum model space distance between geometric entities at asserted c
onnectivities');
#1555=UNCERTAINTY_MEASURE_WITH_UNIT(LENGTH_MEASURE(0.01),#1559,
'DISTANCE_ACCURACY_VALUE',
'Maximum model space distance between geometric entities at asserted c
onnectivities');
#1556=(
GEOMETRIC_REPRESENTATION_CONTEXT(3)
GLOBAL_UNCERTAINTY_ASSIGNED_CONTEXT((#1553))
GLOBAL_UNIT_ASSIGNED_CONTEXT((#1559,#1560,#1561))
REPRESENTATION_CONTEXT('','3D')
);
#1557=(
GEOMETRIC_REPRESENTATION_CONTEXT(3)
GLOBAL_UNCERTAINTY_ASSIGNED_CONTEXT((#1554))
GLOBAL_UNIT_ASSIGNED_CONTEXT((#1559,#1560,#1561))
REPRESENTATION_CONTEXT('','3D')
);
#1558=(
GEOMETRIC_REPRESENTATION_CONTEXT(3)
GLOBAL_UNCERTAINTY_ASSIGNED_CONTEXT((#1555))
GLOBAL_UNIT_ASSIGNED_CONTEXT((#1559,#1560,#1561))
REPRESENTATION_CONTEXT('','3D')
);
#1559=(
LENGTH_UNIT()
NAMED_UNIT(*)
SI_UNIT(.MILLI.,.METRE.)
);
#1560=(
NAMED_UNIT(*)
PLANE_ANGLE_UNIT()
SI_UNIT($,.RADIAN.)
);
#1561=(
NAMED_UNIT(*)
SI_UNIT($,.STERADIAN.)
SOLID_ANGLE_UNIT()
);
#1562=SHAPE_DEFINITION_REPRESENTATION(#1564,#1567);
#1563=SHAPE_DEFINITION_REPRESENTATION(#1565,#1568);
#1564=PRODUCT_DEFINITION_SHAPE('',$,#1570);
#1565=PRODUCT_DEFINITION_SHAPE('',$,#1571);
#1566=PRODUCT_DEFINITION_SHAPE($,$,#14);
#1567=SHAPE_REPRESENTATION('',(#953,#1032),#1556);
#1568=SHAPE_REPRESENTATION('',(#954),#1557);
#1569=PRODUCT_DEFINITION_CONTEXT('part definition',#1577,'design');
#1570=PRODUCT_DEFINITION('DC gearbox','DC gearbox v7',#1572,#1569);
#1571=PRODUCT_DEFINITION('Housing','Housing',#1573,#1569);
#1572=PRODUCT_DEFINITION_FORMATION('',$,#1579);
#1573=PRODUCT_DEFINITION_FORMATION('',$,#1580);
#1574=PRODUCT_RELATED_PRODUCT_CATEGORY('DC gearbox v7','DC gearbox v7',
(#1579));
#1575=PRODUCT_RELATED_PRODUCT_CATEGORY('Housing','Housing',(#1580));
#1576=APPLICATION_PROTOCOL_DEFINITION('international standard',
'automotive_design',2009,#1577);
#1577=APPLICATION_CONTEXT(
'Core Data for Automotive Mechanical Design Process');
#1578=PRODUCT_CONTEXT('part definition',#1577,'mechanical');
#1579=PRODUCT('DC gearbox','DC gearbox v7',$,(#1578));
#1580=PRODUCT('Housing','Housing',$,(#1578));
#1581=PRESENTATION_STYLE_ASSIGNMENT((#1582));
#1582=SURFACE_STYLE_USAGE(.BOTH.,#1583);
#1583=SURFACE_SIDE_STYLE('',(#1584));
#1584=SURFACE_STYLE_FILL_AREA(#1585);
#1585=FILL_AREA_STYLE('Steel - Satin',(#1586));
#1586=FILL_AREA_STYLE_COLOUR('Steel - Satin',#1587);
#1587=COLOUR_RGB('Steel - Satin',0.627450980392157,0.627450980392157,0.627450980392157);
ENDSEC;
END-ISO-10303-21;
